solid Exported from Blender-3.0.1
facet normal -0.757403 0.043193 -0.651518
outer loop
vertex -0.020116 -0.012581 -0.026632
vertex 0.004176 0.016189 -0.052964
vertex 0.000574 -0.011747 -0.050629
endloop
endfacet
facet normal -0.999988 0.004365 -0.002088
outer loop
vertex -0.069548 0.014039 0.156220
vertex -0.069274 0.015453 0.027652
vertex -0.069601 -0.010253 0.130773
endloop
endfacet
facet normal -0.004295 0.999991 -0.000157
outer loop
vertex -0.069773 0.014072 0.373854
vertex -0.025552 0.014262 0.374219
vertex -0.069548 0.014039 0.156220
endloop
endfacet
facet normal -0.001547 0.999998 -0.001016
outer loop
vertex -0.025350 0.014077 0.126480
vertex -0.069548 0.014039 0.156220
vertex -0.025309 0.014187 0.234403
endloop
endfacet
facet normal 0.006714 -0.999958 0.006244
outer loop
vertex -0.069789 -0.010005 0.280451
vertex -0.025317 -0.009959 0.239850
vertex -0.024928 -0.009125 0.373089
endloop
endfacet
facet normal 0.025180 -0.999679 -0.002701
outer loop
vertex -0.069537 -0.010252 0.374200
vertex -0.069789 -0.010005 0.280451
vertex -0.024928 -0.009125 0.373089
endloop
endfacet
facet normal 0.006546 0.999918 0.011011
outer loop
vertex -0.069548 0.014039 0.156220
vertex -0.025350 0.014077 0.126480
vertex -0.069274 0.015453 0.027652
endloop
endfacet
facet normal -0.999989 0.004094 -0.002155
outer loop
vertex -0.069274 0.015453 0.027652
vertex -0.069384 -0.011593 0.027453
vertex -0.069601 -0.010253 0.130773
endloop
endfacet
facet normal -0.739214 0.007990 -0.673423
outer loop
vertex -0.069274 0.015453 0.027652
vertex 0.004176 0.016189 -0.052964
vertex -0.069384 -0.011593 0.027453
endloop
endfacet
facet normal -0.006986 0.999972 0.002768
outer loop
vertex 0.004176 0.016189 -0.052964
vertex -0.069274 0.015453 0.027652
vertex -0.025972 0.015755 0.027765
endloop
endfacet
facet normal -0.739165 0.007693 -0.673480
outer loop
vertex -0.069384 -0.011593 0.027453
vertex 0.004176 0.016189 -0.052964
vertex -0.020116 -0.012581 -0.026632
endloop
endfacet
facet normal 1.000000 -0.000142 -0.000323
outer loop
vertex -0.025378 -0.009335 0.049811
vertex -0.025350 0.014077 0.126480
vertex -0.025317 -0.009959 0.239850
endloop
endfacet
facet normal 0.999645 0.026582 0.001720
outer loop
vertex -0.025552 0.014262 0.374219
vertex -0.024928 -0.009125 0.373089
vertex -0.025309 0.014187 0.234403
endloop
endfacet
facet normal 0.014739 -0.999886 -0.003293
outer loop
vertex -0.025378 -0.009335 0.049811
vertex -0.025317 -0.009959 0.239850
vertex -0.069601 -0.010253 0.130773
endloop
endfacet
facet normal 0.540919 0.840946 0.014688
outer loop
vertex 0.113380 0.039879 -0.089171
vertex 0.017424 0.101540 -0.085734
vertex 0.120554 0.035183 -0.084545
endloop
endfacet
facet normal -0.869231 0.450633 -0.203391
outer loop
vertex 0.021526 -0.054705 -0.058072
vertex 0.030885 -0.025346 -0.033022
vertex 0.025261 -0.047978 -0.059131
endloop
endfacet
facet normal -0.942233 -0.331000 0.051341
outer loop
vertex -0.030053 0.026823 0.039887
vertex -0.023966 0.009424 0.039421
vertex -0.024871 0.013508 0.049145
endloop
endfacet
facet normal -0.378799 0.092668 -0.920828
outer loop
vertex 0.109187 -0.008372 -0.070101
vertex 0.044639 -0.015268 -0.044242
vertex 0.045843 0.005471 -0.042650
endloop
endfacet
facet normal 0.411994 0.194271 0.890236
outer loop
vertex 0.035161 0.017574 -0.031773
vertex 0.039649 -0.006666 -0.028560
vertex 0.115275 -0.008731 -0.063108
endloop
endfacet
facet normal 0.927988 -0.212159 0.306312
outer loop
vertex -0.030409 -0.010620 0.045057
vertex -0.025232 -0.011278 0.028916
vertex -0.023966 0.009424 0.039421
endloop
endfacet
facet normal -0.607203 0.627232 -0.487733
outer loop
vertex -0.019251 -0.027153 0.009904
vertex -0.038641 -0.025402 0.036296
vertex -0.030409 -0.010620 0.045057
endloop
endfacet
facet normal -0.536094 0.591653 -0.602121
outer loop
vertex 0.025261 -0.047978 -0.059131
vertex 0.019056 -0.031268 -0.037187
vertex 0.044639 -0.015268 -0.044242
endloop
endfacet
facet normal -0.757228 0.388939 -0.524722
outer loop
vertex 0.024627 0.025335 -0.036433
vertex 0.009094 0.021959 -0.016521
vertex -0.002291 0.025458 0.002503
endloop
endfacet
facet normal 0.412739 -0.903805 0.113062
outer loop
vertex 0.001777 -0.104829 -0.091558
vertex 0.042897 -0.085703 -0.088776
vertex -0.088943 -0.146003 -0.089514
endloop
endfacet
facet normal 0.385977 -0.896347 0.218137
outer loop
vertex -0.003583 -0.016142 0.027426
vertex -0.035695 -0.025719 0.044895
vertex -0.019251 -0.027153 0.009904
endloop
endfacet
facet normal -0.859732 -0.011340 -0.510620
outer loop
vertex 0.011954 -0.015191 -0.020511
vertex -0.023966 0.009424 0.039421
vertex 0.009094 0.021959 -0.016521
endloop
endfacet
facet normal 0.310560 0.606442 0.731971
outer loop
vertex -0.086926 0.162617 -0.092062
vertex -0.081979 0.134362 -0.070752
vertex 0.017424 0.101540 -0.085734
endloop
endfacet
facet normal -0.644910 -0.510933 -0.568365
outer loop
vertex 0.024627 0.025335 -0.036433
vertex 0.031195 0.042418 -0.059242
vertex 0.045843 0.005471 -0.042650
endloop
endfacet
facet normal -0.433793 -0.504202 -0.746729
outer loop
vertex 0.045843 0.005471 -0.042650
vertex 0.021380 0.096980 -0.090226
vertex 0.109187 -0.008372 -0.070101
endloop
endfacet
facet normal -0.508354 -0.626562 0.590759
outer loop
vertex -0.003411 0.078180 -0.062730
vertex -0.081979 0.134362 -0.070752
vertex -0.016394 0.084420 -0.067285
endloop
endfacet
facet normal -0.304153 -0.327176 -0.894677
outer loop
vertex 0.178546 -0.007178 -0.094117
vertex 0.109187 -0.008372 -0.070101
vertex 0.113380 0.039879 -0.089171
endloop
endfacet
facet normal 0.435701 -0.861280 0.261460
outer loop
vertex 0.096366 -0.058440 -0.088786
vertex 0.175699 -0.017061 -0.084680
vertex 0.112569 -0.047502 -0.079754
endloop
endfacet
facet normal -0.203339 -0.344553 -0.916480
outer loop
vertex 0.109187 -0.008372 -0.070101
vertex 0.021380 0.096980 -0.090226
vertex 0.113380 0.039879 -0.089171
endloop
endfacet
facet normal 0.312283 0.626301 0.714302
outer loop
vertex 0.035161 0.017574 -0.031773
vertex 0.120554 0.035183 -0.084545
vertex 0.033465 0.045571 -0.055579
endloop
endfacet
facet normal 0.293699 0.524806 0.798949
outer loop
vertex -0.081979 0.134362 -0.070752
vertex -0.003411 0.078180 -0.062730
vertex 0.017424 0.101540 -0.085734
endloop
endfacet
facet normal 0.394255 -0.901815 -0.176897
outer loop
vertex -0.088943 -0.146003 -0.089514
vertex -0.107745 -0.152741 -0.097066
vertex -0.028218 -0.118749 -0.093115
endloop
endfacet
facet normal 0.416413 -0.445392 0.792607
outer loop
vertex -0.019251 -0.027153 0.009904
vertex 0.029113 -0.002565 -0.001688
vertex 0.009360 -0.001503 0.009287
endloop
endfacet
facet normal 0.412413 -0.902563 0.123673
outer loop
vertex -0.028218 -0.118749 -0.093115
vertex 0.001777 -0.104829 -0.091558
vertex -0.088943 -0.146003 -0.089514
endloop
endfacet
facet normal -0.109080 -0.591267 0.799065
outer loop
vertex -0.100588 -0.122115 -0.073428
vertex -0.107745 -0.152741 -0.097066
vertex -0.088943 -0.146003 -0.089514
endloop
endfacet
facet normal 0.511358 0.785944 -0.347570
outer loop
vertex 0.021380 0.096980 -0.090226
vertex -0.042870 0.138022 -0.091946
vertex 0.017424 0.101540 -0.085734
endloop
endfacet
facet normal -0.507265 0.502283 -0.700281
outer loop
vertex 0.019056 -0.031268 -0.037187
vertex 0.011954 -0.015191 -0.020511
vertex 0.044639 -0.015268 -0.044242
endloop
endfacet
facet normal -0.327270 0.088870 -0.940743
outer loop
vertex 0.109187 -0.008372 -0.070101
vertex 0.178546 -0.007178 -0.094117
vertex 0.158042 -0.025814 -0.088744
endloop
endfacet
facet normal -0.330918 0.323365 0.886526
outer loop
vertex -0.026716 -0.082165 -0.066063
vertex 0.021526 -0.054705 -0.058072
vertex 0.025261 -0.047978 -0.059131
endloop
endfacet
facet normal -0.220093 0.138848 0.965547
outer loop
vertex 0.025261 -0.047978 -0.059131
vertex -0.057885 -0.097971 -0.070895
vertex -0.026716 -0.082165 -0.066063
endloop
endfacet
facet normal 0.466243 0.824859 0.319728
outer loop
vertex -0.002291 0.025458 0.002503
vertex 0.035161 0.017574 -0.031773
vertex 0.024627 0.025335 -0.036433
endloop
endfacet
facet normal -0.721400 0.318928 -0.614709
outer loop
vertex -0.019251 -0.027153 0.009904
vertex 0.011954 -0.015191 -0.020511
vertex 0.019056 -0.031268 -0.037187
endloop
endfacet
facet normal 0.555631 0.736536 0.385732
outer loop
vertex 0.004554 0.004018 0.033582
vertex -0.002291 0.025458 0.002503
vertex -0.030053 0.026823 0.039887
endloop
endfacet
facet normal 0.872954 0.181052 0.452959
outer loop
vertex 0.175699 -0.017061 -0.084680
vertex 0.178546 -0.007178 -0.094117
vertex 0.172659 0.000836 -0.085975
endloop
endfacet
facet normal 0.161311 -0.762658 0.626364
outer loop
vertex 0.025261 -0.047978 -0.059131
vertex 0.030885 -0.025346 -0.033022
vertex 0.019056 -0.031268 -0.037187
endloop
endfacet
facet normal 0.263935 0.734021 0.625741
outer loop
vertex 0.031195 0.042418 -0.059242
vertex 0.024627 0.025335 -0.036433
vertex 0.035161 0.017574 -0.031773
endloop
endfacet
facet normal 0.660724 -0.740011 -0.125803
outer loop
vertex -0.003583 -0.016142 0.027426
vertex -0.019251 -0.027153 0.009904
vertex 0.009360 -0.001503 0.009287
endloop
endfacet
facet normal 0.348935 0.126461 0.928575
outer loop
vertex 0.172659 0.000836 -0.085975
vertex 0.115275 -0.008731 -0.063108
vertex 0.175699 -0.017061 -0.084680
endloop
endfacet
facet normal 0.438803 0.351035 0.827180
outer loop
vertex 0.115275 -0.008731 -0.063108
vertex 0.120554 0.035183 -0.084545
vertex 0.035161 0.017574 -0.031773
endloop
endfacet
facet normal 0.487455 -0.741332 0.461319
outer loop
vertex 0.029113 -0.002565 -0.001688
vertex -0.019251 -0.027153 0.009904
vertex 0.019056 -0.031268 -0.037187
endloop
endfacet
facet normal 0.493792 0.788825 -0.365958
outer loop
vertex 0.113380 0.039879 -0.089171
vertex 0.021380 0.096980 -0.090226
vertex 0.017424 0.101540 -0.085734
endloop
endfacet
facet normal -0.698564 0.237350 0.675036
outer loop
vertex -0.035695 -0.025719 0.044895
vertex -0.025378 -0.009335 0.049811
vertex -0.030409 -0.010620 0.045057
endloop
endfacet
facet normal -0.456962 0.759687 0.462668
outer loop
vertex -0.057885 -0.097971 -0.070895
vertex -0.100588 -0.122115 -0.073428
vertex -0.026716 -0.082165 -0.066063
endloop
endfacet
facet normal 0.439232 -0.861358 0.255221
outer loop
vertex 0.112569 -0.047502 -0.079754
vertex 0.042897 -0.085703 -0.088776
vertex 0.096366 -0.058440 -0.088786
endloop
endfacet
facet normal 0.550251 0.834979 -0.005836
outer loop
vertex 0.113380 0.039879 -0.089171
vertex 0.120554 0.035183 -0.084545
vertex 0.172659 0.000836 -0.085975
endloop
endfacet
facet normal 0.524088 0.765106 -0.374090
outer loop
vertex 0.178546 -0.007178 -0.094117
vertex 0.113380 0.039879 -0.089171
vertex 0.172659 0.000836 -0.085975
endloop
endfacet
facet normal 0.463868 -0.876719 -0.127243
outer loop
vertex 0.096366 -0.058440 -0.088786
vertex 0.158042 -0.025814 -0.088744
vertex 0.175699 -0.017061 -0.084680
endloop
endfacet
facet normal 0.466669 -0.677374 -0.568669
outer loop
vertex 0.175699 -0.017061 -0.084680
vertex 0.158042 -0.025814 -0.088744
vertex 0.178546 -0.007178 -0.094117
endloop
endfacet
facet normal -0.943340 0.078084 0.322508
outer loop
vertex -0.086926 0.162617 -0.092062
vertex -0.083313 0.132159 -0.074121
vertex -0.081979 0.134362 -0.070752
endloop
endfacet
facet normal -0.459703 -0.365891 0.809195
outer loop
vertex -0.003411 0.078180 -0.062730
vertex -0.016394 0.084420 -0.067285
vertex 0.031195 0.042418 -0.059242
endloop
endfacet
facet normal -0.534735 -0.447508 0.716795
outer loop
vertex 0.031195 0.042418 -0.059242
vertex 0.033465 0.045571 -0.055579
vertex -0.003411 0.078180 -0.062730
endloop
endfacet
facet normal -0.895780 0.310232 0.318332
outer loop
vertex -0.038641 -0.025402 0.036296
vertex -0.035695 -0.025719 0.044895
vertex -0.030409 -0.010620 0.045057
endloop
endfacet
facet normal -0.095351 -0.995436 -0.004010
outer loop
vertex -0.019251 -0.027153 0.009904
vertex -0.035695 -0.025719 0.044895
vertex -0.038641 -0.025402 0.036296
endloop
endfacet
facet normal 0.521787 -0.529316 0.669002
outer loop
vertex -0.035695 -0.025719 0.044895
vertex -0.003583 -0.016142 0.027426
vertex -0.025378 -0.009335 0.049811
endloop
endfacet
facet normal -0.679189 0.557256 -0.477670
outer loop
vertex -0.030409 -0.010620 0.045057
vertex 0.011954 -0.015191 -0.020511
vertex -0.019251 -0.027153 0.009904
endloop
endfacet
facet normal -0.802449 -0.266445 -0.533930
outer loop
vertex -0.023966 0.009424 0.039421
vertex -0.030053 0.026823 0.039887
vertex 0.009094 0.021959 -0.016521
endloop
endfacet
facet normal 0.792931 0.047588 0.607450
outer loop
vertex -0.025972 0.015755 0.027765
vertex -0.025232 -0.011278 0.028916
vertex -0.003394 0.016273 -0.001748
endloop
endfacet
facet normal 0.450667 0.809063 0.377247
outer loop
vertex -0.086926 0.162617 -0.092062
vertex 0.017424 0.101540 -0.085734
vertex -0.042870 0.138022 -0.091946
endloop
endfacet
facet normal -0.999950 -0.009662 0.002666
outer loop
vertex -0.069537 -0.010252 0.374200
vertex -0.069773 0.014072 0.373854
vertex -0.069789 -0.010005 0.280451
endloop
endfacet
facet normal -0.999988 0.004688 -0.001034
outer loop
vertex -0.069548 0.014039 0.156220
vertex -0.069789 -0.010005 0.280451
vertex -0.069773 0.014072 0.373854
endloop
endfacet
facet normal -0.002383 0.999997 -0.000543
outer loop
vertex -0.069548 0.014039 0.156220
vertex -0.025552 0.014262 0.374219
vertex -0.025309 0.014187 0.234403
endloop
endfacet
facet normal 0.999995 -0.000980 -0.002914
outer loop
vertex -0.025309 0.014187 0.234403
vertex -0.024928 -0.009125 0.373089
vertex -0.025317 -0.009959 0.239850
endloop
endfacet
facet normal 0.002533 -0.999995 0.001663
outer loop
vertex -0.069789 -0.010005 0.280451
vertex -0.069601 -0.010253 0.130773
vertex -0.025317 -0.009959 0.239850
endloop
endfacet
facet normal -0.999993 0.003501 -0.001264
outer loop
vertex -0.069548 0.014039 0.156220
vertex -0.069601 -0.010253 0.130773
vertex -0.069789 -0.010005 0.280451
endloop
endfacet
facet normal 1.000000 -0.000409 -0.000380
outer loop
vertex -0.025317 -0.009959 0.239850
vertex -0.025350 0.014077 0.126480
vertex -0.025309 0.014187 0.234403
endloop
endfacet
facet normal 0.797379 -0.465769 0.383726
outer loop
vertex 0.029113 -0.002565 -0.001688
vertex 0.030885 -0.025346 -0.033022
vertex 0.039649 -0.006666 -0.028560
endloop
endfacet
facet normal 0.037801 -0.998923 0.026917
outer loop
vertex -0.020116 -0.012581 -0.026632
vertex -0.005968 -0.011374 -0.001682
vertex -0.025232 -0.011278 0.028916
endloop
endfacet
facet normal 0.019101 -0.999733 0.013009
outer loop
vertex -0.069384 -0.011593 0.027453
vertex -0.030409 -0.010620 0.045057
vertex -0.069601 -0.010253 0.130773
endloop
endfacet
facet normal -0.904184 0.243603 0.350870
outer loop
vertex 0.031195 0.042418 -0.059242
vertex 0.035161 0.017574 -0.031773
vertex 0.033465 0.045571 -0.055579
endloop
endfacet
facet normal 0.731136 -0.527516 0.432628
outer loop
vertex -0.007678 -0.006054 -0.021733
vertex 0.013258 0.016030 -0.030186
vertex -0.003394 0.016273 -0.001748
endloop
endfacet
facet normal -0.231663 0.536804 -0.811279
outer loop
vertex 0.096366 -0.058440 -0.088786
vertex -0.028218 -0.118749 -0.093115
vertex -0.057885 -0.097971 -0.070895
endloop
endfacet
facet normal -0.415833 0.835248 -0.359783
outer loop
vertex -0.100588 -0.122115 -0.073428
vertex 0.021526 -0.054705 -0.058072
vertex -0.026716 -0.082165 -0.066063
endloop
endfacet
facet normal 0.920111 0.213847 0.328124
outer loop
vertex 0.029113 -0.002565 -0.001688
vertex 0.039649 -0.006666 -0.028560
vertex 0.035161 0.017574 -0.031773
endloop
endfacet
facet normal 0.999738 -0.022008 0.006354
outer loop
vertex -0.025350 0.014077 0.126480
vertex -0.025378 -0.009335 0.049811
vertex -0.024871 0.013508 0.049145
endloop
endfacet
facet normal 0.471312 0.015238 0.881835
outer loop
vertex -0.024871 0.013508 0.049145
vertex -0.025378 -0.009335 0.049811
vertex 0.004554 0.004018 0.033582
endloop
endfacet
facet normal 0.283094 0.393030 0.874863
outer loop
vertex 0.120554 0.035183 -0.084545
vertex 0.115275 -0.008731 -0.063108
vertex 0.172659 0.000836 -0.085975
endloop
endfacet
facet normal -0.007213 0.994457 0.104899
outer loop
vertex -0.024871 0.013508 0.049145
vertex -0.025972 0.015755 0.027765
vertex -0.069274 0.015453 0.027652
endloop
endfacet
facet normal 0.189319 -0.789080 0.584390
outer loop
vertex 0.019056 -0.031268 -0.037187
vertex 0.030885 -0.025346 -0.033022
vertex 0.029113 -0.002565 -0.001688
endloop
endfacet
facet normal 0.843616 -0.077275 0.531357
outer loop
vertex -0.025232 -0.011278 0.028916
vertex -0.005968 -0.011374 -0.001682
vertex -0.003394 0.016273 -0.001748
endloop
endfacet
facet normal 0.376325 -0.387549 0.841537
outer loop
vertex 0.030885 -0.025346 -0.033022
vertex 0.112569 -0.047502 -0.079754
vertex 0.115275 -0.008731 -0.063108
endloop
endfacet
facet normal -0.502965 -0.618594 0.603629
outer loop
vertex -0.081979 0.134362 -0.070752
vertex -0.083313 0.132159 -0.074121
vertex -0.016394 0.084420 -0.067285
endloop
endfacet
facet normal 0.963910 0.265340 -0.021746
outer loop
vertex -0.023966 0.009424 0.039421
vertex -0.025972 0.015755 0.027765
vertex -0.024871 0.013508 0.049145
endloop
endfacet
facet normal 0.221346 -0.672836 0.705902
outer loop
vertex 0.030885 -0.025346 -0.033022
vertex 0.021526 -0.054705 -0.058072
vertex 0.112569 -0.047502 -0.079754
endloop
endfacet
facet normal 0.526951 -0.809265 -0.259642
outer loop
vertex -0.005968 -0.011374 -0.001682
vertex -0.020116 -0.012581 -0.026632
vertex -0.007678 -0.006054 -0.021733
endloop
endfacet
facet normal 0.745122 -0.581105 0.327276
outer loop
vertex 0.013258 0.016030 -0.030186
vertex -0.007678 -0.006054 -0.021733
vertex 0.000574 -0.011747 -0.050629
endloop
endfacet
facet normal 0.989745 -0.092404 -0.108933
outer loop
vertex -0.005968 -0.011374 -0.001682
vertex -0.007678 -0.006054 -0.021733
vertex -0.003394 0.016273 -0.001748
endloop
endfacet
facet normal 0.302770 0.517850 0.800101
outer loop
vertex 0.033465 0.045571 -0.055579
vertex 0.017424 0.101540 -0.085734
vertex -0.003411 0.078180 -0.062730
endloop
endfacet
facet normal 0.358261 -0.891300 0.277910
outer loop
vertex 0.000574 -0.011747 -0.050629
vertex -0.007678 -0.006054 -0.021733
vertex -0.020116 -0.012581 -0.026632
endloop
endfacet
facet normal 0.906598 0.413258 0.085424
outer loop
vertex 0.009360 -0.001503 0.009287
vertex -0.002291 0.025458 0.002503
vertex 0.004554 0.004018 0.033582
endloop
endfacet
facet normal 0.259764 -0.396206 0.880650
outer loop
vertex 0.175699 -0.017061 -0.084680
vertex 0.115275 -0.008731 -0.063108
vertex 0.112569 -0.047502 -0.079754
endloop
endfacet
facet normal -0.155695 -0.283382 -0.946284
outer loop
vertex -0.086926 0.162617 -0.092062
vertex -0.042870 0.138022 -0.091946
vertex 0.021380 0.096980 -0.090226
endloop
endfacet
facet normal -0.311026 0.625190 -0.715822
outer loop
vertex -0.057885 -0.097971 -0.070895
vertex -0.107745 -0.152741 -0.097066
vertex -0.100588 -0.122115 -0.073428
endloop
endfacet
facet normal 0.918145 -0.149035 -0.367149
outer loop
vertex 0.013258 0.016030 -0.030186
vertex 0.000574 -0.011747 -0.050629
vertex 0.004176 0.016189 -0.052964
endloop
endfacet
facet normal -0.415204 -0.504563 -0.756982
outer loop
vertex 0.021380 0.096980 -0.090226
vertex 0.045843 0.005471 -0.042650
vertex 0.031195 0.042418 -0.059242
endloop
endfacet
facet normal -0.261105 0.523767 -0.810859
outer loop
vertex 0.096366 -0.058440 -0.088786
vertex 0.025261 -0.047978 -0.059131
vertex 0.044639 -0.015268 -0.044242
endloop
endfacet
facet normal -0.306101 -0.527258 -0.792654
outer loop
vertex 0.021380 0.096980 -0.090226
vertex -0.016394 0.084420 -0.067285
vertex -0.086926 0.162617 -0.092062
endloop
endfacet
facet normal -0.204536 0.387783 -0.898771
outer loop
vertex 0.158042 -0.025814 -0.088744
vertex 0.096366 -0.058440 -0.088786
vertex 0.109187 -0.008372 -0.070101
endloop
endfacet
facet normal -0.376822 0.407010 -0.832075
outer loop
vertex 0.109187 -0.008372 -0.070101
vertex 0.096366 -0.058440 -0.088786
vertex 0.044639 -0.015268 -0.044242
endloop
endfacet
facet normal 0.165432 -0.494117 0.853511
outer loop
vertex 0.021526 -0.054705 -0.058072
vertex -0.100588 -0.122115 -0.073428
vertex -0.088943 -0.146003 -0.089514
endloop
endfacet
facet normal -0.282035 -0.511567 -0.811638
outer loop
vertex -0.086926 0.162617 -0.092062
vertex -0.016394 0.084420 -0.067285
vertex -0.083313 0.132159 -0.074121
endloop
endfacet
facet normal -0.830836 0.113896 -0.544737
outer loop
vertex -0.023966 0.009424 0.039421
vertex 0.011954 -0.015191 -0.020511
vertex -0.030409 -0.010620 0.045057
endloop
endfacet
facet normal 0.324867 0.519061 0.790593
outer loop
vertex 0.120554 0.035183 -0.084545
vertex 0.017424 0.101540 -0.085734
vertex 0.033465 0.045571 -0.055579
endloop
endfacet
facet normal -0.315755 -0.510861 -0.799574
outer loop
vertex 0.021380 0.096980 -0.090226
vertex 0.031195 0.042418 -0.059242
vertex -0.016394 0.084420 -0.067285
endloop
endfacet
facet normal 0.233829 -0.557310 0.796699
outer loop
vertex 0.021526 -0.054705 -0.058072
vertex -0.088943 -0.146003 -0.089514
vertex 0.112569 -0.047502 -0.079754
endloop
endfacet
facet normal 0.343212 -0.757210 0.555733
outer loop
vertex 0.112569 -0.047502 -0.079754
vertex -0.088943 -0.146003 -0.089514
vertex 0.042897 -0.085703 -0.088776
endloop
endfacet
facet normal 0.015823 0.999875 0.000689
outer loop
vertex 0.004176 0.016189 -0.052964
vertex -0.003394 0.016273 -0.001748
vertex 0.013258 0.016030 -0.030186
endloop
endfacet
facet normal 0.862135 -0.429873 0.268201
outer loop
vertex 0.009360 -0.001503 0.009287
vertex 0.004554 0.004018 0.033582
vertex -0.003583 -0.016142 0.027426
endloop
endfacet
facet normal 0.987095 0.020271 -0.158847
outer loop
vertex -0.023966 0.009424 0.039421
vertex -0.025232 -0.011278 0.028916
vertex -0.025972 0.015755 0.027765
endloop
endfacet
facet normal -0.239088 0.580761 -0.778173
outer loop
vertex 0.096366 -0.058440 -0.088786
vertex -0.057885 -0.097971 -0.070895
vertex 0.025261 -0.047978 -0.059131
endloop
endfacet
facet normal 0.376051 -0.378480 0.845776
outer loop
vertex 0.030885 -0.025346 -0.033022
vertex 0.115275 -0.008731 -0.063108
vertex 0.039649 -0.006666 -0.028560
endloop
endfacet
facet normal -0.202205 0.565983 -0.799235
outer loop
vertex -0.028218 -0.118749 -0.093115
vertex -0.107745 -0.152741 -0.097066
vertex -0.057885 -0.097971 -0.070895
endloop
endfacet
facet normal 0.005720 -0.999076 0.042598
outer loop
vertex -0.069384 -0.011593 0.027453
vertex -0.025232 -0.011278 0.028916
vertex -0.030409 -0.010620 0.045057
endloop
endfacet
facet normal 0.006339 -0.999691 0.024037
outer loop
vertex -0.020116 -0.012581 -0.026632
vertex -0.025232 -0.011278 0.028916
vertex -0.069384 -0.011593 0.027453
endloop
endfacet
facet normal 0.323096 -0.615862 -0.718556
outer loop
vertex 0.001777 -0.104829 -0.091558
vertex -0.028218 -0.118749 -0.093115
vertex 0.096366 -0.058440 -0.088786
endloop
endfacet
facet normal 0.391534 -0.768089 -0.506696
outer loop
vertex 0.001777 -0.104829 -0.091558
vertex 0.096366 -0.058440 -0.088786
vertex 0.042897 -0.085703 -0.088776
endloop
endfacet
facet normal -0.031126 0.999496 -0.006249
outer loop
vertex 0.004176 0.016189 -0.052964
vertex -0.025972 0.015755 0.027765
vertex -0.003394 0.016273 -0.001748
endloop
endfacet
facet normal -0.624783 0.610883 -0.486280
outer loop
vertex -0.030053 0.026823 0.039887
vertex -0.002291 0.025458 0.002503
vertex 0.009094 0.021959 -0.016521
endloop
endfacet
facet normal 0.026068 -0.047547 0.998529
outer loop
vertex -0.069537 -0.010252 0.374200
vertex -0.024928 -0.009125 0.373089
vertex -0.025552 0.014262 0.374219
endloop
endfacet
facet normal 0.172310 -0.981541 0.082983
outer loop
vertex -0.030409 -0.010620 0.045057
vertex -0.025378 -0.009335 0.049811
vertex -0.069601 -0.010253 0.130773
endloop
endfacet
facet normal -0.445685 -0.203167 -0.871830
outer loop
vertex 0.045843 0.005471 -0.042650
vertex 0.011954 -0.015191 -0.020511
vertex 0.024627 0.025335 -0.036433
endloop
endfacet
facet normal 0.461670 0.398866 0.792317
outer loop
vertex 0.029113 -0.002565 -0.001688
vertex -0.002291 0.025458 0.002503
vertex 0.009360 -0.001503 0.009287
endloop
endfacet
facet normal 0.605188 0.599934 0.523284
outer loop
vertex 0.035161 0.017574 -0.031773
vertex -0.002291 0.025458 0.002503
vertex 0.029113 -0.002565 -0.001688
endloop
endfacet
facet normal 0.514356 0.615434 0.597226
outer loop
vertex 0.004554 0.004018 0.033582
vertex -0.030053 0.026823 0.039887
vertex -0.024871 0.013508 0.049145
endloop
endfacet
facet normal 0.571856 -0.441892 0.691167
outer loop
vertex -0.003583 -0.016142 0.027426
vertex 0.004554 0.004018 0.033582
vertex -0.025378 -0.009335 0.049811
endloop
endfacet
facet normal -0.788907 0.005266 -0.614490
outer loop
vertex 0.024627 0.025335 -0.036433
vertex 0.011954 -0.015191 -0.020511
vertex 0.009094 0.021959 -0.016521
endloop
endfacet
facet normal -0.584680 0.095776 -0.805591
outer loop
vertex 0.044639 -0.015268 -0.044242
vertex 0.011954 -0.015191 -0.020511
vertex 0.045843 0.005471 -0.042650
endloop
endfacet
facet normal 0.047173 0.998862 -0.007060
outer loop
vertex -0.024871 0.013508 0.049145
vertex -0.069274 0.015453 0.027652
vertex -0.025350 0.014077 0.126480
endloop
endfacet
facet normal -0.008314 0.014154 0.999865
outer loop
vertex -0.069537 -0.010252 0.374200
vertex -0.025552 0.014262 0.374219
vertex -0.069773 0.014072 0.373854
endloop
endfacet
endsolid Exported from Blender-3.0.1
