solid Exported from Blender-3.0.1
facet normal -0.027132 0.999449 0.019108
outer loop
vertex 0.001427 0.017687 -0.008470
vertex 0.009691 0.018159 -0.021443
vertex -0.008252 0.017945 -0.035717
endloop
endfacet
facet normal 0.358431 0.810810 -0.462724
outer loop
vertex -0.008252 0.017945 -0.035717
vertex 0.009691 0.018159 -0.021443
vertex -0.001481 0.016623 -0.032788
endloop
endfacet
facet normal -0.464198 0.006645 -0.885706
outer loop
vertex -0.079978 0.015742 0.043815
vertex -0.079182 0.018072 0.043416
vertex -0.079264 -0.011287 0.043238
endloop
endfacet
facet normal -0.004489 0.999971 0.006165
outer loop
vertex -0.039504 0.015776 0.111649
vertex -0.080108 0.015430 0.138178
vertex -0.035697 0.015456 0.166276
endloop
endfacet
facet normal -0.999951 0.009774 -0.001345
outer loop
vertex -0.079978 0.015742 0.043815
vertex -0.080219 -0.008894 0.044186
vertex -0.080108 0.015430 0.138178
endloop
endfacet
facet normal -0.209494 0.968546 -0.134282
outer loop
vertex -0.012228 0.018228 0.007930
vertex -0.036175 0.017959 0.043353
vertex -0.022120 0.018633 0.026283
endloop
endfacet
facet normal 0.005059 -0.999987 -0.000624
outer loop
vertex -0.035800 -0.008899 0.251818
vertex -0.080015 -0.009064 0.157063
vertex -0.035725 -0.008831 0.143414
endloop
endfacet
facet normal 0.009017 -0.999959 0.000398
outer loop
vertex -0.080101 -0.009033 0.390342
vertex -0.079953 -0.009067 0.299530
vertex -0.035610 -0.008652 0.338207
endloop
endfacet
facet normal -0.747569 0.007768 -0.664139
outer loop
vertex -0.026831 -0.010896 -0.015141
vertex -0.008252 0.017945 -0.035717
vertex -0.009541 -0.010975 -0.034604
endloop
endfacet
facet normal -0.744623 0.006104 -0.667457
outer loop
vertex -0.079182 0.018072 0.043416
vertex -0.008252 0.017945 -0.035717
vertex -0.079264 -0.011287 0.043238
endloop
endfacet
facet normal -0.003533 -0.999993 -0.001498
outer loop
vertex -0.080015 -0.009064 0.157063
vertex -0.080219 -0.008894 0.044186
vertex -0.037656 -0.009103 0.083218
endloop
endfacet
facet normal 0.002608 0.999996 0.000737
outer loop
vertex -0.008252 0.017945 -0.035717
vertex -0.079182 0.018072 0.043416
vertex -0.036175 0.017959 0.043353
endloop
endfacet
facet normal -0.751744 0.013905 -0.659308
outer loop
vertex -0.026831 -0.010896 -0.015141
vertex -0.043736 -0.011590 0.004120
vertex -0.008252 0.017945 -0.035717
endloop
endfacet
facet normal -0.999995 -0.002417 0.001811
outer loop
vertex -0.080219 -0.008894 0.044186
vertex -0.080015 -0.009064 0.157063
vertex -0.080108 0.015430 0.138178
endloop
endfacet
facet normal 0.999969 -0.007857 0.000679
outer loop
vertex -0.035725 -0.008831 0.143414
vertex -0.035609 0.014980 0.247449
vertex -0.035800 -0.008899 0.251818
endloop
endfacet
facet normal -0.740219 -0.017257 -0.672145
outer loop
vertex -0.079264 -0.011287 0.043238
vertex -0.008252 0.017945 -0.035717
vertex -0.043736 -0.011590 0.004120
endloop
endfacet
facet normal 0.004103 -0.999992 -0.000029
outer loop
vertex -0.035721 -0.008885 0.281292
vertex -0.079953 -0.009067 0.299530
vertex -0.080015 -0.009064 0.157063
endloop
endfacet
facet normal 0.999708 0.018067 0.016063
outer loop
vertex -0.036274 0.015632 0.288089
vertex -0.035721 -0.008885 0.281292
vertex -0.035609 0.014980 0.247449
endloop
endfacet
facet normal 0.005932 -0.999980 -0.002236
outer loop
vertex -0.080101 -0.009033 0.390342
vertex -0.035610 -0.008652 0.338207
vertex -0.035538 -0.008768 0.390253
endloop
endfacet
facet normal 0.999924 -0.000254 -0.012306
outer loop
vertex -0.035535 0.015180 0.390033
vertex -0.035538 -0.008768 0.390253
vertex -0.036109 0.015461 0.343343
endloop
endfacet
facet normal 0.005800 -0.999975 0.004087
outer loop
vertex -0.079953 -0.009067 0.299530
vertex -0.035721 -0.008885 0.281292
vertex -0.035610 -0.008652 0.338207
endloop
endfacet
facet normal 0.999768 0.021340 -0.002908
outer loop
vertex -0.036109 0.015461 0.343343
vertex -0.035610 -0.008652 0.338207
vertex -0.036274 0.015632 0.288089
endloop
endfacet
facet normal 0.002746 -0.999996 0.000455
outer loop
vertex -0.035721 -0.008885 0.281292
vertex -0.080015 -0.009064 0.157063
vertex -0.035800 -0.008899 0.251818
endloop
endfacet
facet normal -0.999992 -0.003873 -0.000077
outer loop
vertex -0.080015 -0.009064 0.157063
vertex -0.080119 0.015623 0.267058
vertex -0.080108 0.015430 0.138178
endloop
endfacet
facet normal 0.782037 0.623226 0.002802
outer loop
vertex -0.035697 0.015456 0.166276
vertex -0.036274 0.015632 0.288089
vertex -0.035609 0.014980 0.247449
endloop
endfacet
facet normal 0.999779 0.021004 -0.001325
outer loop
vertex -0.035610 -0.008652 0.338207
vertex -0.036109 0.015461 0.343343
vertex -0.035538 -0.008768 0.390253
endloop
endfacet
facet normal 0.999731 0.023091 -0.002059
outer loop
vertex -0.035721 -0.008885 0.281292
vertex -0.036274 0.015632 0.288089
vertex -0.035610 -0.008652 0.338207
endloop
endfacet
facet normal 0.000358 0.999999 -0.001495
outer loop
vertex -0.080119 0.015623 0.267058
vertex -0.035697 0.015456 0.166276
vertex -0.080108 0.015430 0.138178
endloop
endfacet
facet normal -0.411989 0.828310 -0.379695
outer loop
vertex -0.048022 -0.089241 -0.057716
vertex -0.108995 -0.119350 -0.057241
vertex -0.055202 -0.090285 -0.052203
endloop
endfacet
facet normal 0.339233 0.914252 0.221506
outer loop
vertex 0.011830 0.023222 -0.006556
vertex 0.006792 0.026345 -0.011730
vertex -0.012900 0.026242 0.018855
endloop
endfacet
facet normal -0.102351 -0.108679 0.988794
outer loop
vertex -0.016630 -0.068872 -0.046973
vertex -0.022437 -0.079234 -0.048713
vertex 0.008209 -0.057228 -0.043122
endloop
endfacet
facet normal -0.418711 0.146475 -0.896229
outer loop
vertex 0.036413 -0.009707 -0.028248
vertex 0.037475 -0.001210 -0.027355
vertex 0.071910 -0.003668 -0.043845
endloop
endfacet
facet normal -0.317122 -0.921911 0.222518
outer loop
vertex 0.009774 -0.028668 -0.015817
vertex 0.010678 -0.030447 -0.021897
vertex 0.024008 -0.037460 -0.031957
endloop
endfacet
facet normal -0.894479 -0.397032 -0.205604
outer loop
vertex -0.041163 0.028389 0.056686
vertex -0.030936 0.009327 0.049002
vertex -0.036339 0.015790 0.060026
endloop
endfacet
facet normal 0.404539 0.135025 0.904498
outer loop
vertex 0.146687 -0.007197 -0.060900
vertex 0.164634 -0.008580 -0.068721
vertex 0.151572 0.001175 -0.064335
endloop
endfacet
facet normal 0.281828 -0.087659 0.955452
outer loop
vertex 0.145918 -0.017059 -0.061578
vertex 0.146687 -0.007197 -0.060900
vertex 0.106794 -0.009680 -0.049361
endloop
endfacet
facet normal -0.419997 0.162949 -0.892777
outer loop
vertex 0.090211 -0.021288 -0.055670
vertex 0.036413 -0.009707 -0.028248
vertex 0.071910 -0.003668 -0.043845
endloop
endfacet
facet normal 0.260111 -0.188736 0.946953
outer loop
vertex 0.145918 -0.017059 -0.061578
vertex 0.106794 -0.009680 -0.049361
vertex 0.102291 -0.020366 -0.050254
endloop
endfacet
facet normal -0.267406 -0.107542 -0.957564
outer loop
vertex 0.134814 -0.002126 -0.067347
vertex 0.111261 -0.010331 -0.059849
vertex 0.098012 0.009524 -0.058379
endloop
endfacet
facet normal 0.340815 -0.575396 -0.743481
outer loop
vertex -0.065121 -0.130373 -0.077390
vertex -0.096298 -0.144324 -0.080885
vertex -0.047386 -0.118956 -0.078096
endloop
endfacet
facet normal -0.312779 -0.363362 -0.877574
outer loop
vertex 0.134814 -0.002126 -0.067347
vertex 0.119339 0.025141 -0.073122
vertex 0.156469 0.002113 -0.076821
endloop
endfacet
facet normal -0.783657 -0.257013 -0.565531
outer loop
vertex 0.006792 0.026345 -0.011730
vertex 0.016950 0.028343 -0.026713
vertex 0.010566 0.017327 -0.012862
endloop
endfacet
facet normal 0.409011 0.091245 0.907956
outer loop
vertex 0.055036 0.009123 -0.028303
vertex 0.058397 -0.007952 -0.028101
vertex 0.098664 0.004514 -0.047494
endloop
endfacet
facet normal 0.748658 -0.160265 0.643294
outer loop
vertex -0.031258 0.008719 0.064244
vertex -0.035121 -0.001872 0.066100
vertex -0.035682 -0.011711 0.064302
endloop
endfacet
facet normal -0.849941 -0.050782 -0.524425
outer loop
vertex -0.035463 0.014019 0.055884
vertex -0.030936 0.009327 0.049002
vertex -0.034323 0.005204 0.054889
endloop
endfacet
facet normal 0.383711 -0.236290 0.892711
outer loop
vertex 0.058397 -0.007952 -0.028101
vertex 0.102291 -0.020366 -0.050254
vertex 0.106794 -0.009680 -0.049361
endloop
endfacet
facet normal 0.263891 -0.903887 0.336675
outer loop
vertex 0.009774 -0.028668 -0.015817
vertex -0.015654 -0.023563 0.017819
vertex -0.017659 -0.026292 0.012066
endloop
endfacet
facet normal -0.810897 0.293027 -0.506538
outer loop
vertex -0.029592 -0.016310 0.034871
vertex -0.034499 -0.006382 0.048469
vertex -0.034323 0.005204 0.054889
endloop
endfacet
facet normal 0.146361 -0.021460 -0.988998
outer loop
vertex -0.035753 -0.116857 -0.076420
vertex -0.047386 -0.118956 -0.078096
vertex -0.032821 -0.109643 -0.076143
endloop
endfacet
facet normal -0.017749 0.045618 -0.998801
outer loop
vertex -0.009855 -0.102500 -0.076225
vertex -0.035753 -0.116857 -0.076420
vertex -0.032821 -0.109643 -0.076143
endloop
endfacet
facet normal -0.722988 0.548669 -0.419823
outer loop
vertex -0.029785 -0.024468 0.024540
vertex -0.043030 -0.018289 0.055426
vertex -0.029592 -0.016310 0.034871
endloop
endfacet
facet normal 0.431806 -0.144112 0.890379
outer loop
vertex 0.029523 -0.013924 -0.015065
vertex 0.058397 -0.007952 -0.028101
vertex 0.036977 -0.002396 -0.016814
endloop
endfacet
facet normal -0.046835 -0.057610 0.997240
outer loop
vertex -0.022437 -0.079234 -0.048713
vertex -0.038981 -0.080909 -0.049586
vertex -0.057894 -0.094199 -0.051242
endloop
endfacet
facet normal -0.487106 0.623551 -0.611484
outer loop
vertex 0.015517 -0.042895 -0.042469
vertex 0.012672 -0.028669 -0.025695
vertex 0.026246 -0.019530 -0.027189
endloop
endfacet
facet normal 0.418669 -0.356041 0.835435
outer loop
vertex 0.059545 -0.025220 -0.036036
vertex 0.058397 -0.007952 -0.028101
vertex 0.037188 -0.019850 -0.022543
endloop
endfacet
facet normal 0.455221 0.358927 0.814829
outer loop
vertex 0.055036 0.009123 -0.028303
vertex 0.029569 0.016194 -0.017190
vertex 0.030702 0.005843 -0.013264
endloop
endfacet
facet normal -0.395970 -0.203128 -0.895515
outer loop
vertex 0.071910 -0.003668 -0.043845
vertex 0.054849 0.014129 -0.040338
vertex 0.098012 0.009524 -0.058379
endloop
endfacet
facet normal 0.284576 -0.713886 0.639831
outer loop
vertex 0.009774 -0.028668 -0.015817
vertex 0.024008 -0.037460 -0.031957
vertex 0.016229 -0.022976 -0.012337
endloop
endfacet
facet normal -0.465436 -0.756906 -0.458762
outer loop
vertex 0.015936 0.049087 -0.044638
vertex 0.006532 0.058428 -0.050509
vertex 0.026812 0.044565 -0.048213
endloop
endfacet
facet normal 0.308627 0.201297 0.929639
outer loop
vertex 0.151572 0.001175 -0.064335
vertex 0.098664 0.004514 -0.047494
vertex 0.146687 -0.007197 -0.060900
endloop
endfacet
facet normal -0.037539 -0.144990 0.988721
outer loop
vertex -0.016630 -0.068872 -0.046973
vertex -0.038981 -0.080909 -0.049586
vertex -0.022437 -0.079234 -0.048713
endloop
endfacet
facet normal -0.450108 0.818593 -0.356802
outer loop
vertex -0.050238 -0.023784 0.051911
vertex -0.043030 -0.018289 0.055426
vertex -0.029785 -0.024468 0.024540
endloop
endfacet
facet normal -0.412177 0.082746 0.907339
outer loop
vertex -0.036339 0.015790 0.060026
vertex -0.033148 0.019935 0.061098
vertex -0.041163 0.028389 0.056686
endloop
endfacet
facet normal -0.813372 0.496617 -0.302982
outer loop
vertex -0.040367 -0.009688 0.062376
vertex -0.036983 -0.009695 0.053278
vertex -0.043030 -0.018289 0.055426
endloop
endfacet
facet normal -0.432327 0.901499 0.019808
outer loop
vertex -0.025571 -0.073083 -0.050507
vertex -0.016630 -0.068872 -0.046973
vertex 0.004795 -0.058512 -0.050852
endloop
endfacet
facet normal -0.815217 -0.134742 -0.563263
outer loop
vertex -0.007674 0.010049 0.015161
vertex -0.034323 0.005204 0.054889
vertex -0.030936 0.009327 0.049002
endloop
endfacet
facet normal -0.943602 -0.313660 0.105984
outer loop
vertex 0.015517 -0.042895 -0.042469
vertex 0.015098 -0.038575 -0.033410
vertex 0.012672 -0.028669 -0.025695
endloop
endfacet
facet normal -0.420883 0.345180 -0.838873
outer loop
vertex 0.050426 -0.023685 -0.041030
vertex 0.026246 -0.019530 -0.027189
vertex 0.036413 -0.009707 -0.028248
endloop
endfacet
facet normal -0.468387 -0.284161 -0.836580
outer loop
vertex 0.054849 0.014129 -0.040338
vertex 0.071910 -0.003668 -0.043845
vertex 0.030363 0.012332 -0.026018
endloop
endfacet
facet normal 0.402336 -0.879555 0.253985
outer loop
vertex -0.026587 -0.019886 0.042573
vertex -0.041351 -0.020843 0.062644
vertex -0.039607 -0.026601 0.039944
endloop
endfacet
facet normal -0.831388 0.115160 -0.543629
outer loop
vertex -0.013500 -0.007945 0.020258
vertex -0.034323 0.005204 0.054889
vertex -0.007674 0.010049 0.015161
endloop
endfacet
facet normal -0.773417 0.492114 0.399563
outer loop
vertex -0.036339 0.015790 0.060026
vertex -0.035458 0.013453 0.064608
vertex -0.033148 0.019935 0.061098
endloop
endfacet
facet normal 0.315251 0.559561 0.766491
outer loop
vertex -0.091068 0.159594 -0.069930
vertex -0.086536 0.140084 -0.057551
vertex 0.000677 0.103664 -0.066833
endloop
endfacet
facet normal 0.575131 -0.477599 0.664171
outer loop
vertex -0.041351 -0.020843 0.062644
vertex -0.026503 -0.010914 0.056927
vertex -0.035682 -0.011711 0.064302
endloop
endfacet
facet normal 0.196576 0.099268 0.975450
outer loop
vertex -0.035121 -0.001872 0.066100
vertex -0.031258 0.008719 0.064244
vertex -0.035458 0.013453 0.064608
endloop
endfacet
facet normal -0.579937 -0.227316 -0.782305
outer loop
vertex 0.020169 0.002521 -0.015610
vertex 0.030363 0.012332 -0.026018
vertex 0.037475 -0.001210 -0.027355
endloop
endfacet
facet normal -0.786387 -0.317611 -0.529829
outer loop
vertex -0.002224 0.023760 -0.001147
vertex -0.007674 0.010049 0.015161
vertex -0.015200 0.025504 0.017067
endloop
endfacet
facet normal -0.840716 0.122785 -0.527371
outer loop
vertex 0.002305 -0.007518 -0.004838
vertex -0.013500 -0.007945 0.020258
vertex -0.007674 0.010049 0.015161
endloop
endfacet
facet normal -0.586311 -0.518213 -0.622652
outer loop
vertex 0.016950 0.028343 -0.026713
vertex 0.022149 0.034512 -0.036743
vertex 0.030363 0.012332 -0.026018
endloop
endfacet
facet normal -0.381116 -0.482412 -0.788688
outer loop
vertex 0.054849 0.014129 -0.040338
vertex 0.061705 0.061153 -0.072413
vertex 0.098012 0.009524 -0.058379
endloop
endfacet
facet normal -0.329003 -0.370656 -0.868545
outer loop
vertex 0.134814 -0.002126 -0.067347
vertex 0.098012 0.009524 -0.058379
vertex 0.119339 0.025141 -0.073122
endloop
endfacet
facet normal 0.292893 0.396448 0.870082
outer loop
vertex 0.126215 0.020693 -0.064139
vertex 0.081330 0.038515 -0.057151
vertex 0.098664 0.004514 -0.047494
endloop
endfacet
facet normal -0.951817 -0.265276 -0.153860
outer loop
vertex -0.093920 0.136862 -0.062054
vertex -0.094585 0.135837 -0.056174
vertex -0.098092 0.158647 -0.073802
endloop
endfacet
facet normal 0.446310 0.560646 0.697484
outer loop
vertex 0.029569 0.016194 -0.017190
vertex 0.027769 0.032151 -0.028865
vertex 0.014842 0.026453 -0.016013
endloop
endfacet
facet normal 0.409138 -0.649054 0.641353
outer loop
vertex 0.037188 -0.019850 -0.022543
vertex 0.016229 -0.022976 -0.012337
vertex 0.024008 -0.037460 -0.031957
endloop
endfacet
facet normal -0.279036 -0.429681 -0.858786
outer loop
vertex 0.098012 0.009524 -0.058379
vertex 0.061705 0.061153 -0.072413
vertex 0.119339 0.025141 -0.073122
endloop
endfacet
facet normal 0.010553 0.910161 0.414121
outer loop
vertex 0.014842 0.026453 -0.016013
vertex 0.027769 0.032151 -0.028865
vertex 0.018891 0.031217 -0.026586
endloop
endfacet
facet normal -0.155181 -0.293937 -0.943144
outer loop
vertex -0.078833 0.154491 -0.077759
vertex -0.059379 0.137860 -0.075777
vertex -0.089478 0.152576 -0.075410
endloop
endfacet
facet normal -0.759510 0.311721 -0.570943
outer loop
vertex -0.015200 0.025504 0.017067
vertex 0.006792 0.026345 -0.011730
vertex -0.002224 0.023760 -0.001147
endloop
endfacet
facet normal 0.238579 -0.590641 0.770859
outer loop
vertex 0.024008 -0.037460 -0.031957
vertex 0.032073 -0.046001 -0.040998
vertex 0.037188 -0.019850 -0.022543
endloop
endfacet
facet normal 0.234048 -0.562029 0.793313
outer loop
vertex -0.053728 -0.120495 -0.068713
vertex 0.019256 -0.088689 -0.067712
vertex -0.022437 -0.079234 -0.048713
endloop
endfacet
facet normal -0.241083 0.545414 -0.802747
outer loop
vertex -0.032821 -0.109643 -0.076143
vertex -0.047386 -0.118956 -0.078096
vertex -0.048022 -0.089241 -0.057716
endloop
endfacet
facet normal 0.327324 -0.452138 0.829717
outer loop
vertex 0.100128 -0.047798 -0.064349
vertex 0.102291 -0.020366 -0.050254
vertex 0.059545 -0.025220 -0.036036
endloop
endfacet
facet normal -0.301611 0.603363 -0.738230
outer loop
vertex 0.015517 -0.042895 -0.042469
vertex 0.050426 -0.023685 -0.041030
vertex 0.004795 -0.058512 -0.050852
endloop
endfacet
facet normal 0.296414 0.502869 0.811949
outer loop
vertex -0.086536 0.140084 -0.057551
vertex -0.058916 0.115331 -0.052304
vertex 0.000677 0.103664 -0.066833
endloop
endfacet
facet normal 0.371451 0.459512 0.806767
outer loop
vertex 0.027769 0.032151 -0.028865
vertex 0.055036 0.009123 -0.028303
vertex 0.081330 0.038515 -0.057151
endloop
endfacet
facet normal 0.082490 -0.351768 0.932445
outer loop
vertex -0.022437 -0.079234 -0.048713
vertex 0.032073 -0.046001 -0.040998
vertex 0.008209 -0.057228 -0.043122
endloop
endfacet
facet normal 0.143601 0.355977 0.923395
outer loop
vertex -0.080268 0.127160 -0.053543
vertex -0.058916 0.115331 -0.052304
vertex -0.086536 0.140084 -0.057551
endloop
endfacet
facet normal -0.845815 0.522242 0.108908
outer loop
vertex 0.011983 -0.048927 -0.040996
vertex 0.015517 -0.042895 -0.042469
vertex 0.004795 -0.058512 -0.050852
endloop
endfacet
facet normal -0.896336 0.413114 -0.160991
outer loop
vertex -0.115377 -0.132339 -0.064096
vertex -0.112172 -0.126238 -0.066282
vertex -0.119765 -0.146950 -0.077152
endloop
endfacet
facet normal -0.498743 0.539082 -0.678709
outer loop
vertex -0.112172 -0.126238 -0.066282
vertex -0.114291 -0.146203 -0.080582
vertex -0.119765 -0.146950 -0.077152
endloop
endfacet
facet normal 0.517496 0.788464 0.332449
outer loop
vertex 0.054701 0.072328 -0.069683
vertex 0.092737 0.046671 -0.068039
vertex 0.087978 0.051503 -0.072091
endloop
endfacet
facet normal 0.432687 -0.634460 0.640501
outer loop
vertex -0.015654 -0.023563 0.017819
vertex 0.010738 -0.007307 0.016094
vertex -0.004842 -0.013087 0.020892
endloop
endfacet
facet normal 0.374398 -0.706343 0.600754
outer loop
vertex 0.100128 -0.047798 -0.064349
vertex 0.142035 -0.029657 -0.069137
vertex 0.133094 -0.029011 -0.062805
endloop
endfacet
facet normal 0.400930 -0.575205 0.713017
outer loop
vertex 0.013241 -0.013850 0.009408
vertex 0.010738 -0.007307 0.016094
vertex -0.015654 -0.023563 0.017819
endloop
endfacet
facet normal 0.941755 0.064806 0.329995
outer loop
vertex 0.018626 0.006426 0.008207
vertex 0.018012 -0.002479 0.011708
vertex 0.023543 -0.003251 -0.003923
endloop
endfacet
facet normal 0.411558 -0.903042 0.123026
outer loop
vertex -0.065121 -0.130373 -0.077390
vertex -0.035753 -0.116857 -0.076420
vertex -0.035411 -0.116126 -0.072205
endloop
endfacet
facet normal -0.622207 -0.756292 -0.202191
outer loop
vertex -0.093920 0.136862 -0.062054
vertex -0.081217 0.124685 -0.055597
vertex -0.094585 0.135837 -0.056174
endloop
endfacet
facet normal 0.222997 0.145991 -0.963825
outer loop
vertex -0.059379 0.137860 -0.075777
vertex -0.078833 0.154491 -0.077759
vertex -0.058270 0.143167 -0.074716
endloop
endfacet
facet normal -0.051777 -0.122265 -0.991146
outer loop
vertex 0.059109 0.068604 -0.073197
vertex 0.061705 0.061153 -0.072413
vertex 0.013182 0.095218 -0.074081
endloop
endfacet
facet normal -0.457347 -0.678373 -0.575016
outer loop
vertex -0.008325 0.076203 -0.054984
vertex -0.007823 0.070074 -0.048153
vertex -0.029562 0.087629 -0.051574
endloop
endfacet
facet normal -0.626688 -0.716128 0.307284
outer loop
vertex -0.021807 0.082118 -0.048601
vertex -0.029562 0.087629 -0.051574
vertex -0.007823 0.070074 -0.048153
endloop
endfacet
facet normal -0.167433 -0.284687 -0.943885
outer loop
vertex 0.013182 0.095218 -0.074081
vertex 0.061705 0.061153 -0.072413
vertex -0.018220 0.110464 -0.073109
endloop
endfacet
facet normal -0.106136 -0.507788 0.854919
outer loop
vertex -0.115377 -0.132339 -0.064096
vertex -0.118470 -0.147556 -0.073517
vertex -0.107892 -0.140802 -0.068193
endloop
endfacet
facet normal -0.478978 -0.485986 -0.731025
outer loop
vertex -0.093920 0.136862 -0.062054
vertex -0.098092 0.158647 -0.073802
vertex -0.089478 0.152576 -0.075410
endloop
endfacet
facet normal 0.202219 0.327459 -0.922973
outer loop
vertex 0.149053 0.012261 -0.074845
vertex 0.156469 0.002113 -0.076821
vertex 0.133013 0.021384 -0.075123
endloop
endfacet
facet normal -0.126208 -0.124310 -0.984184
outer loop
vertex 0.146746 -0.025644 -0.072068
vertex 0.156469 0.002113 -0.076821
vertex 0.166479 -0.002771 -0.077487
endloop
endfacet
facet normal 0.020172 -0.246956 -0.968817
outer loop
vertex 0.166479 -0.002771 -0.077487
vertex 0.167295 -0.013398 -0.074761
vertex 0.146746 -0.025644 -0.072068
endloop
endfacet
facet normal -0.149879 0.107013 0.982896
outer loop
vertex -0.106165 -0.122538 -0.056462
vertex -0.055202 -0.090285 -0.052203
vertex -0.108995 -0.119350 -0.057241
endloop
endfacet
facet normal -0.602028 0.471854 -0.644140
outer loop
vertex -0.000703 -0.018173 -0.005506
vertex 0.012672 -0.028669 -0.025695
vertex -0.007374 -0.027529 -0.006125
endloop
endfacet
facet normal -0.049131 0.084017 -0.995252
outer loop
vertex 0.145469 -0.022425 -0.072429
vertex 0.090258 -0.054881 -0.072444
vertex 0.089947 -0.050040 -0.072020
endloop
endfacet
facet normal -0.002588 -0.990321 -0.138771
outer loop
vertex -0.029785 -0.024468 0.024540
vertex -0.015654 -0.023563 0.017819
vertex -0.039607 -0.026601 0.039944
endloop
endfacet
facet normal -0.478955 0.607874 -0.633318
outer loop
vertex 0.012672 -0.028669 -0.025695
vertex -0.000703 -0.018173 -0.005506
vertex 0.026246 -0.019530 -0.027189
endloop
endfacet
facet normal -0.322268 0.273515 -0.906274
outer loop
vertex 0.071910 -0.003668 -0.043845
vertex 0.111261 -0.010331 -0.059849
vertex 0.090211 -0.021288 -0.055670
endloop
endfacet
facet normal -0.435748 -0.141060 -0.888947
outer loop
vertex 0.030363 0.012332 -0.026018
vertex 0.071910 -0.003668 -0.043845
vertex 0.037475 -0.001210 -0.027355
endloop
endfacet
facet normal -0.397937 -0.199238 -0.895517
outer loop
vertex 0.071910 -0.003668 -0.043845
vertex 0.098012 0.009524 -0.058379
vertex 0.111261 -0.010331 -0.059849
endloop
endfacet
facet normal -0.535437 0.479204 -0.695464
outer loop
vertex 0.036413 -0.009707 -0.028248
vertex 0.026246 -0.019530 -0.027189
vertex -0.000703 -0.018173 -0.005506
endloop
endfacet
facet normal -0.250877 0.555755 -0.792589
outer loop
vertex 0.089947 -0.050040 -0.072020
vertex 0.033134 -0.075485 -0.071878
vertex 0.050426 -0.023685 -0.041030
endloop
endfacet
facet normal -0.323637 0.066410 -0.943848
outer loop
vertex 0.134814 -0.002126 -0.067347
vertex 0.145469 -0.022425 -0.072429
vertex 0.111261 -0.010331 -0.059849
endloop
endfacet
facet normal -0.670408 0.647047 0.363158
outer loop
vertex -0.050238 -0.023784 0.051911
vertex -0.048563 -0.025169 0.057470
vertex -0.043030 -0.018289 0.055426
endloop
endfacet
facet normal -0.403546 0.017193 -0.914798
outer loop
vertex 0.156469 0.002113 -0.076821
vertex 0.145469 -0.022425 -0.072429
vertex 0.134814 -0.002126 -0.067347
endloop
endfacet
facet normal -0.077893 -0.141692 -0.986841
outer loop
vertex 0.145469 -0.022425 -0.072429
vertex 0.156469 0.002113 -0.076821
vertex 0.146746 -0.025644 -0.072068
endloop
endfacet
facet normal -0.457773 0.806971 -0.373151
outer loop
vertex -0.016630 -0.068872 -0.046973
vertex 0.002260 -0.057450 -0.045445
vertex 0.004795 -0.058512 -0.050852
endloop
endfacet
facet normal -0.497568 0.818922 -0.285994
outer loop
vertex -0.025571 -0.073083 -0.050507
vertex -0.048022 -0.089241 -0.057716
vertex -0.038981 -0.080909 -0.049586
endloop
endfacet
facet normal -0.703546 0.082426 0.705854
outer loop
vertex 0.022149 0.034512 -0.036743
vertex 0.021140 0.040658 -0.038466
vertex 0.015936 0.049087 -0.044638
endloop
endfacet
facet normal -0.730305 0.393795 -0.558193
outer loop
vertex -0.029746 0.026073 0.036500
vertex -0.021814 0.027590 0.027192
vertex -0.015200 0.025504 0.017067
endloop
endfacet
facet normal -0.668279 0.512171 -0.539522
outer loop
vertex -0.029785 -0.024468 0.024540
vertex -0.000703 -0.018173 -0.005506
vertex -0.007374 -0.027529 -0.006125
endloop
endfacet
facet normal -0.304327 0.946758 -0.105047
outer loop
vertex -0.021814 0.027590 0.027192
vertex -0.029746 0.026073 0.036500
vertex -0.030204 0.027017 0.046331
endloop
endfacet
facet normal 0.035881 0.994941 -0.093834
outer loop
vertex -0.041163 0.028389 0.056686
vertex -0.030204 0.027017 0.046331
vertex -0.029746 0.026073 0.036500
endloop
endfacet
facet normal 0.519206 0.798579 0.304461
outer loop
vertex -0.009644 0.013392 0.047007
vertex -0.012900 0.026242 0.018855
vertex -0.030204 0.027017 0.046331
endloop
endfacet
facet normal 0.355274 -0.658460 -0.663485
outer loop
vertex 0.065622 -0.068252 -0.070465
vertex 0.030954 -0.084856 -0.072551
vertex 0.063828 -0.066392 -0.073271
endloop
endfacet
facet normal 0.575982 0.470800 0.668275
outer loop
vertex 0.164634 -0.008580 -0.068721
vertex 0.168809 -0.005229 -0.074681
vertex 0.151572 0.001175 -0.064335
endloop
endfacet
facet normal 0.851266 -0.192382 0.488196
outer loop
vertex 0.163390 -0.015935 -0.069451
vertex 0.168809 -0.005229 -0.074681
vertex 0.164634 -0.008580 -0.068721
endloop
endfacet
facet normal 0.383754 -0.491941 0.781490
outer loop
vertex 0.163390 -0.015935 -0.069451
vertex 0.145918 -0.017059 -0.061578
vertex 0.133094 -0.029011 -0.062805
endloop
endfacet
facet normal 0.401187 -0.872624 0.278524
outer loop
vertex 0.030954 -0.084856 -0.072551
vertex 0.065622 -0.068252 -0.070465
vertex 0.019256 -0.088689 -0.067712
endloop
endfacet
facet normal 0.384369 -0.831505 0.401074
outer loop
vertex 0.019256 -0.088689 -0.067712
vertex -0.035411 -0.116126 -0.072205
vertex -0.003466 -0.101765 -0.073045
endloop
endfacet
facet normal -0.060395 -0.578091 0.813734
outer loop
vertex 0.015098 -0.038575 -0.033410
vertex 0.011983 -0.048927 -0.040996
vertex 0.024008 -0.037460 -0.031957
endloop
endfacet
facet normal 0.007630 -0.815542 0.578647
outer loop
vertex 0.015098 -0.038575 -0.033410
vertex 0.024008 -0.037460 -0.031957
vertex 0.010678 -0.030447 -0.021897
endloop
endfacet
facet normal -0.041046 -0.998157 0.044699
outer loop
vertex 0.009774 -0.028668 -0.015817
vertex -0.017659 -0.026292 0.012066
vertex -0.007374 -0.027529 -0.006125
endloop
endfacet
facet normal 0.102630 -0.950498 0.293293
outer loop
vertex 0.010678 -0.030447 -0.021897
vertex 0.009774 -0.028668 -0.015817
vertex -0.007374 -0.027529 -0.006125
endloop
endfacet
facet normal 0.080257 0.772928 0.629397
outer loop
vertex 0.021140 0.040658 -0.038466
vertex 0.018891 0.031217 -0.026586
vertex 0.027769 0.032151 -0.028865
endloop
endfacet
facet normal 0.414043 -0.158951 0.896272
outer loop
vertex 0.163390 -0.015935 -0.069451
vertex 0.164634 -0.008580 -0.068721
vertex 0.145918 -0.017059 -0.061578
endloop
endfacet
facet normal 0.416387 -0.633072 0.652566
outer loop
vertex 0.163390 -0.015935 -0.069451
vertex 0.133094 -0.029011 -0.062805
vertex 0.142035 -0.029657 -0.069137
endloop
endfacet
facet normal 0.486588 0.628909 0.606388
outer loop
vertex 0.014842 0.026453 -0.016013
vertex 0.022246 0.010991 -0.005918
vertex 0.029569 0.016194 -0.017190
endloop
endfacet
facet normal 0.440750 0.565610 0.697012
outer loop
vertex 0.155871 0.006798 -0.071617
vertex 0.126215 0.020693 -0.064139
vertex 0.151572 0.001175 -0.064335
endloop
endfacet
facet normal 0.628200 -0.728504 0.273216
outer loop
vertex -0.014658 -0.017884 0.030674
vertex -0.015654 -0.023563 0.017819
vertex -0.004842 -0.013087 0.020892
endloop
endfacet
facet normal 0.447306 -0.418741 0.790299
outer loop
vertex 0.029523 -0.013924 -0.015065
vertex 0.016229 -0.022976 -0.012337
vertex 0.037188 -0.019850 -0.022543
endloop
endfacet
facet normal 0.275910 0.031629 0.960663
outer loop
vertex 0.098664 0.004514 -0.047494
vertex 0.106794 -0.009680 -0.049361
vertex 0.146687 -0.007197 -0.060900
endloop
endfacet
facet normal 0.518384 -0.568847 0.638506
outer loop
vertex 0.029523 -0.013924 -0.015065
vertex 0.022575 -0.010855 -0.006690
vertex 0.016229 -0.022976 -0.012337
endloop
endfacet
facet normal 0.872008 -0.261518 0.413776
outer loop
vertex 0.030702 0.005843 -0.013264
vertex 0.023543 -0.003251 -0.003923
vertex 0.022575 -0.010855 -0.006690
endloop
endfacet
facet normal 0.550162 0.060135 0.832890
outer loop
vertex 0.022575 -0.010855 -0.006690
vertex 0.036977 -0.002396 -0.016814
vertex 0.030702 0.005843 -0.013264
endloop
endfacet
facet normal 0.522478 0.030778 0.852097
outer loop
vertex 0.036977 -0.002396 -0.016814
vertex 0.055036 0.009123 -0.028303
vertex 0.030702 0.005843 -0.013264
endloop
endfacet
facet normal 0.484899 0.105715 0.868158
outer loop
vertex 0.055036 0.009123 -0.028303
vertex 0.036977 -0.002396 -0.016814
vertex 0.058397 -0.007952 -0.028101
endloop
endfacet
facet normal 0.444104 -0.422582 0.790061
outer loop
vertex 0.058397 -0.007952 -0.028101
vertex 0.029523 -0.013924 -0.015065
vertex 0.037188 -0.019850 -0.022543
endloop
endfacet
facet normal 0.403016 0.111299 0.908400
outer loop
vertex 0.058397 -0.007952 -0.028101
vertex 0.106794 -0.009680 -0.049361
vertex 0.098664 0.004514 -0.047494
endloop
endfacet
facet normal 0.309757 -0.587913 0.747267
outer loop
vertex 0.032073 -0.046001 -0.040998
vertex 0.059545 -0.025220 -0.036036
vertex 0.037188 -0.019850 -0.022543
endloop
endfacet
facet normal 0.724201 0.312497 0.614719
outer loop
vertex 0.029569 0.016194 -0.017190
vertex 0.022246 0.010991 -0.005918
vertex 0.030702 0.005843 -0.013264
endloop
endfacet
facet normal 0.664573 -0.327829 0.671469
outer loop
vertex 0.036977 -0.002396 -0.016814
vertex 0.022575 -0.010855 -0.006690
vertex 0.029523 -0.013924 -0.015065
endloop
endfacet
facet normal 0.457133 0.558175 0.692438
outer loop
vertex 0.055036 0.009123 -0.028303
vertex 0.027769 0.032151 -0.028865
vertex 0.029569 0.016194 -0.017190
endloop
endfacet
facet normal 0.258054 -0.187924 0.947678
outer loop
vertex -0.035121 -0.001872 0.066100
vertex -0.037371 -0.009462 0.065208
vertex -0.035682 -0.011711 0.064302
endloop
endfacet
facet normal 0.232527 -0.565159 0.791534
outer loop
vertex 0.032073 -0.046001 -0.040998
vertex -0.022437 -0.079234 -0.048713
vertex 0.019256 -0.088689 -0.067712
endloop
endfacet
facet normal 0.400799 0.433566 0.807082
outer loop
vertex 0.098664 0.004514 -0.047494
vertex 0.081330 0.038515 -0.057151
vertex 0.055036 0.009123 -0.028303
endloop
endfacet
facet normal 0.391658 -0.093466 0.915352
outer loop
vertex 0.164634 -0.008580 -0.068721
vertex 0.146687 -0.007197 -0.060900
vertex 0.145918 -0.017059 -0.061578
endloop
endfacet
facet normal 0.464817 0.701012 0.540858
outer loop
vertex 0.155871 0.006798 -0.071617
vertex 0.122898 0.029089 -0.072171
vertex 0.126215 0.020693 -0.064139
endloop
endfacet
facet normal 0.679433 0.600562 0.421540
outer loop
vertex 0.022246 0.010991 -0.005918
vertex 0.014842 0.026453 -0.016013
vertex 0.011830 0.023222 -0.006556
endloop
endfacet
facet normal 0.397028 -0.814154 0.423701
outer loop
vertex 0.013241 -0.013850 0.009408
vertex -0.015654 -0.023563 0.017819
vertex 0.009774 -0.028668 -0.015817
endloop
endfacet
facet normal -0.482519 0.851120 0.206809
outer loop
vertex -0.016630 -0.068872 -0.046973
vertex -0.025571 -0.073083 -0.050507
vertex -0.038981 -0.080909 -0.049586
endloop
endfacet
facet normal 0.576563 0.445827 0.684699
outer loop
vertex 0.168809 -0.005229 -0.074681
vertex 0.155871 0.006798 -0.071617
vertex 0.151572 0.001175 -0.064335
endloop
endfacet
facet normal 0.475352 0.698940 0.534343
outer loop
vertex 0.122898 0.029089 -0.072171
vertex 0.107878 0.038589 -0.071235
vertex 0.126215 0.020693 -0.064139
endloop
endfacet
facet normal 0.456869 0.753465 0.472822
outer loop
vertex -0.028299 0.124470 -0.071991
vertex 0.000677 0.103664 -0.066833
vertex 0.012986 0.099022 -0.071330
endloop
endfacet
facet normal 0.458007 0.745602 0.484053
outer loop
vertex 0.054701 0.072328 -0.069683
vertex 0.012986 0.099022 -0.071330
vertex 0.000677 0.103664 -0.066833
endloop
endfacet
facet normal -0.156273 0.009057 0.987672
outer loop
vertex -0.021807 0.082118 -0.048601
vertex -0.009934 0.076096 -0.046667
vertex -0.021896 0.087800 -0.048667
endloop
endfacet
facet normal -0.298683 -0.141499 0.943804
outer loop
vertex -0.046585 0.100223 -0.050667
vertex -0.058916 0.115331 -0.052304
vertex -0.057666 0.108046 -0.053001
endloop
endfacet
facet normal 0.289596 0.513154 0.807965
outer loop
vertex -0.021896 0.087800 -0.048667
vertex 0.002721 0.064306 -0.042569
vertex 0.000677 0.103664 -0.066833
endloop
endfacet
facet normal 0.005663 0.298677 0.954338
outer loop
vertex -0.094585 0.135837 -0.056174
vertex -0.080268 0.127160 -0.053543
vertex -0.086536 0.140084 -0.057551
endloop
endfacet
facet normal 0.409557 0.623753 0.665728
outer loop
vertex -0.058270 0.143167 -0.074716
vertex -0.071281 0.151498 -0.074517
vertex -0.091068 0.159594 -0.069930
endloop
endfacet
facet normal -0.825727 0.560462 -0.063698
outer loop
vertex 0.014842 0.026453 -0.016013
vertex 0.018891 0.031217 -0.026586
vertex 0.016950 0.028343 -0.026713
endloop
endfacet
facet normal 0.184573 0.910573 0.369851
outer loop
vertex 0.014842 0.026453 -0.016013
vertex 0.006792 0.026345 -0.011730
vertex 0.011830 0.023222 -0.006556
endloop
endfacet
facet normal 0.343645 0.906963 0.243571
outer loop
vertex -0.030204 0.027017 0.046331
vertex -0.041163 0.028389 0.056686
vertex -0.037614 0.026583 0.058402
endloop
endfacet
facet normal 0.355983 -0.898932 0.255339
outer loop
vertex -0.048563 -0.025169 0.057470
vertex -0.039607 -0.026601 0.039944
vertex -0.041351 -0.020843 0.062644
endloop
endfacet
facet normal -0.359557 0.054113 0.931553
outer loop
vertex -0.041351 -0.020843 0.062644
vertex -0.035682 -0.011711 0.064302
vertex -0.040367 -0.009688 0.062376
endloop
endfacet
facet normal 0.225638 -0.908350 0.352120
outer loop
vertex -0.015654 -0.023563 0.017819
vertex -0.029785 -0.024468 0.024540
vertex -0.017659 -0.026292 0.012066
endloop
endfacet
facet normal -0.349223 0.442734 0.825851
outer loop
vertex -0.055202 -0.090285 -0.052203
vertex -0.106165 -0.122538 -0.056462
vertex -0.057894 -0.094199 -0.051242
endloop
endfacet
facet normal -0.476991 -0.215327 0.852123
outer loop
vertex -0.106165 -0.122538 -0.056462
vertex -0.108995 -0.119350 -0.057241
vertex -0.115377 -0.132339 -0.064096
endloop
endfacet
facet normal 0.215677 -0.806415 0.550616
outer loop
vertex -0.089200 -0.141414 -0.075987
vertex -0.118470 -0.147556 -0.073517
vertex -0.112552 -0.150268 -0.079808
endloop
endfacet
facet normal 0.398497 -0.804168 0.441037
outer loop
vertex 0.065622 -0.068252 -0.070465
vertex 0.142035 -0.029657 -0.069137
vertex 0.100128 -0.047798 -0.064349
endloop
endfacet
facet normal 0.830189 -0.159208 0.534264
outer loop
vertex 0.168809 -0.005229 -0.074681
vertex 0.163390 -0.015935 -0.069451
vertex 0.167295 -0.013398 -0.074761
endloop
endfacet
facet normal 0.543526 0.809509 0.221978
outer loop
vertex 0.155871 0.006798 -0.071617
vertex 0.149053 0.012261 -0.074845
vertex 0.122898 0.029089 -0.072171
endloop
endfacet
facet normal 0.707268 -0.124249 -0.695941
outer loop
vertex 0.167295 -0.013398 -0.074761
vertex 0.166479 -0.002771 -0.077487
vertex 0.168809 -0.005229 -0.074681
endloop
endfacet
facet normal 0.356318 -0.762712 -0.539730
outer loop
vertex 0.017018 -0.091504 -0.074023
vertex -0.003466 -0.101765 -0.073045
vertex -0.009855 -0.102500 -0.076225
endloop
endfacet
facet normal 0.417986 -0.802108 -0.426510
outer loop
vertex 0.090258 -0.054881 -0.072444
vertex 0.146746 -0.025644 -0.072068
vertex 0.142035 -0.029657 -0.069137
endloop
endfacet
facet normal 0.144023 0.107049 -0.983767
outer loop
vertex 0.099628 0.041199 -0.074260
vertex 0.122898 0.029089 -0.072171
vertex 0.119339 0.025141 -0.073122
endloop
endfacet
facet normal 0.364384 0.567391 -0.738439
outer loop
vertex 0.059109 0.068604 -0.073197
vertex 0.087978 0.051503 -0.072091
vertex 0.099628 0.041199 -0.074260
endloop
endfacet
facet normal 0.312013 0.723563 -0.615715
outer loop
vertex 0.166479 -0.002771 -0.077487
vertex 0.156469 0.002113 -0.076821
vertex 0.155871 0.006798 -0.071617
endloop
endfacet
facet normal 0.435674 0.542114 -0.718540
outer loop
vertex 0.000241 0.105938 -0.073840
vertex 0.012986 0.099022 -0.071330
vertex 0.013182 0.095218 -0.074081
endloop
endfacet
facet normal 0.385526 -0.687051 -0.615899
outer loop
vertex -0.009855 -0.102500 -0.076225
vertex -0.003466 -0.101765 -0.073045
vertex -0.035753 -0.116857 -0.076420
endloop
endfacet
facet normal 0.318349 -0.683732 -0.656631
outer loop
vertex 0.090258 -0.054881 -0.072444
vertex 0.065622 -0.068252 -0.070465
vertex 0.063828 -0.066392 -0.073271
endloop
endfacet
facet normal 0.441112 0.761149 -0.475470
outer loop
vertex 0.149053 0.012261 -0.074845
vertex 0.133013 0.021384 -0.075123
vertex 0.122898 0.029089 -0.072171
endloop
endfacet
facet normal 0.426990 0.727980 -0.536399
outer loop
vertex 0.099628 0.041199 -0.074260
vertex 0.107878 0.038589 -0.071235
vertex 0.122898 0.029089 -0.072171
endloop
endfacet
facet normal 0.391323 0.861283 -0.324125
outer loop
vertex 0.107878 0.038589 -0.071235
vertex 0.099628 0.041199 -0.074260
vertex 0.092737 0.046671 -0.068039
endloop
endfacet
facet normal -0.593553 -0.562861 -0.575224
outer loop
vertex 0.012672 -0.028669 -0.025695
vertex 0.010678 -0.030447 -0.021897
vertex -0.007374 -0.027529 -0.006125
endloop
endfacet
facet normal 0.430912 -0.842001 -0.324574
outer loop
vertex 0.090258 -0.054881 -0.072444
vertex 0.142035 -0.029657 -0.069137
vertex 0.065622 -0.068252 -0.070465
endloop
endfacet
facet normal 0.507932 -0.860578 -0.037556
outer loop
vertex 0.146746 -0.025644 -0.072068
vertex 0.167295 -0.013398 -0.074761
vertex 0.163390 -0.015935 -0.069451
endloop
endfacet
facet normal 0.678589 0.582898 -0.446932
outer loop
vertex 0.149053 0.012261 -0.074845
vertex 0.155871 0.006798 -0.071617
vertex 0.156469 0.002113 -0.076821
endloop
endfacet
facet normal 0.669310 0.737143 0.092977
outer loop
vertex 0.087978 0.051503 -0.072091
vertex 0.092737 0.046671 -0.068039
vertex 0.099628 0.041199 -0.074260
endloop
endfacet
facet normal 0.533590 0.821442 -0.201285
outer loop
vertex 0.059109 0.068604 -0.073197
vertex 0.012986 0.099022 -0.071330
vertex 0.054701 0.072328 -0.069683
endloop
endfacet
facet normal -0.188564 -0.981252 -0.039855
outer loop
vertex -0.007374 -0.027529 -0.006125
vertex -0.017659 -0.026292 0.012066
vertex -0.029785 -0.024468 0.024540
endloop
endfacet
facet normal 0.413235 -0.908720 -0.058863
outer loop
vertex -0.096298 -0.144324 -0.080885
vertex -0.065121 -0.130373 -0.077390
vertex -0.089200 -0.141414 -0.075987
endloop
endfacet
facet normal 0.295397 -0.876636 -0.379803
outer loop
vertex -0.096298 -0.144324 -0.080885
vertex -0.112552 -0.150268 -0.079808
vertex -0.105370 -0.146762 -0.082314
endloop
endfacet
facet normal -0.418590 -0.908173 -0.002180
outer loop
vertex -0.112552 -0.150268 -0.079808
vertex -0.118470 -0.147556 -0.073517
vertex -0.119765 -0.146950 -0.077152
endloop
endfacet
facet normal 0.196562 -0.361704 -0.911336
outer loop
vertex -0.065121 -0.130373 -0.077390
vertex -0.047386 -0.118956 -0.078096
vertex -0.035753 -0.116857 -0.076420
endloop
endfacet
facet normal 0.394468 -0.883119 0.253960
outer loop
vertex 0.017018 -0.091504 -0.074023
vertex 0.030954 -0.084856 -0.072551
vertex 0.019256 -0.088689 -0.067712
endloop
endfacet
facet normal 0.500495 0.828706 -0.250500
outer loop
vertex 0.087978 0.051503 -0.072091
vertex 0.059109 0.068604 -0.073197
vertex 0.054701 0.072328 -0.069683
endloop
endfacet
facet normal -0.137095 0.880792 0.453223
outer loop
vertex -0.097846 0.158123 -0.069122
vertex -0.091068 0.159594 -0.069930
vertex -0.094574 0.162604 -0.076840
endloop
endfacet
facet normal 0.437735 0.873444 -0.213267
outer loop
vertex -0.078833 0.154491 -0.077759
vertex -0.094574 0.162604 -0.076840
vertex -0.071281 0.151498 -0.074517
endloop
endfacet
facet normal 0.408272 0.894430 0.182509
outer loop
vertex -0.091068 0.159594 -0.069930
vertex -0.071281 0.151498 -0.074517
vertex -0.094574 0.162604 -0.076840
endloop
endfacet
facet normal 0.499638 0.802070 -0.327178
outer loop
vertex 0.012986 0.099022 -0.071330
vertex 0.000241 0.105938 -0.073840
vertex -0.028299 0.124470 -0.071991
endloop
endfacet
facet normal -0.991690 -0.122769 0.038464
outer loop
vertex -0.097846 0.158123 -0.069122
vertex -0.098092 0.158647 -0.073802
vertex -0.094585 0.135837 -0.056174
endloop
endfacet
facet normal -0.586946 -0.381892 0.713900
outer loop
vertex 0.002721 0.064306 -0.042569
vertex -0.009934 0.076096 -0.046667
vertex -0.007823 0.070074 -0.048153
endloop
endfacet
facet normal 0.515709 0.819206 -0.250890
outer loop
vertex -0.034204 0.127141 -0.075409
vertex -0.028299 0.124470 -0.071991
vertex 0.000241 0.105938 -0.073840
endloop
endfacet
facet normal -0.766936 -0.286904 -0.574016
outer loop
vertex 0.016950 0.028343 -0.026713
vertex 0.021140 0.040658 -0.038466
vertex 0.022149 0.034512 -0.036743
endloop
endfacet
facet normal -0.422202 -0.477373 0.770623
outer loop
vertex -0.081217 0.124685 -0.055597
vertex -0.057666 0.108046 -0.053001
vertex -0.080268 0.127160 -0.053543
endloop
endfacet
facet normal -0.420803 0.352248 0.835970
outer loop
vertex 0.015936 0.049087 -0.044638
vertex 0.021140 0.040658 -0.038466
vertex 0.024158 0.046324 -0.039335
endloop
endfacet
facet normal -0.605338 -0.597155 0.526281
outer loop
vertex 0.002721 0.064306 -0.042569
vertex -0.007823 0.070074 -0.048153
vertex 0.015936 0.049087 -0.044638
endloop
endfacet
facet normal -0.696384 0.708249 0.115904
outer loop
vertex -0.094574 0.162604 -0.076840
vertex -0.098092 0.158647 -0.073802
vertex -0.097846 0.158123 -0.069122
endloop
endfacet
facet normal -0.303744 -0.470251 0.828616
outer loop
vertex -0.021896 0.087800 -0.048667
vertex -0.046585 0.100223 -0.050667
vertex -0.029562 0.087629 -0.051574
endloop
endfacet
facet normal -0.312196 -0.329294 0.891122
outer loop
vertex -0.007823 0.070074 -0.048153
vertex -0.009934 0.076096 -0.046667
vertex -0.021807 0.082118 -0.048601
endloop
endfacet
facet normal -0.637478 -0.750713 -0.173353
outer loop
vertex 0.015936 0.049087 -0.044638
vertex -0.007823 0.070074 -0.048153
vertex 0.006532 0.058428 -0.050509
endloop
endfacet
facet normal -0.540818 -0.820851 -0.183628
outer loop
vertex -0.046585 0.100223 -0.050667
vertex -0.057666 0.108046 -0.053001
vertex -0.050517 0.104072 -0.056290
endloop
endfacet
facet normal -0.571000 -0.575397 0.585558
outer loop
vertex 0.002721 0.064306 -0.042569
vertex 0.015936 0.049087 -0.044638
vertex 0.024158 0.046324 -0.039335
endloop
endfacet
facet normal -0.208796 0.969125 -0.131156
outer loop
vertex 0.006792 0.026345 -0.011730
vertex -0.015200 0.025504 0.017067
vertex -0.012900 0.026242 0.018855
endloop
endfacet
facet normal -0.385583 0.112384 0.915803
outer loop
vertex -0.037614 0.026583 0.058402
vertex -0.041163 0.028389 0.056686
vertex -0.033148 0.019935 0.061098
endloop
endfacet
facet normal -0.778297 0.522410 -0.348341
outer loop
vertex -0.043030 -0.018289 0.055426
vertex -0.048563 -0.025169 0.057470
vertex -0.040367 -0.009688 0.062376
endloop
endfacet
facet normal -0.609810 0.072754 0.789201
outer loop
vertex -0.041351 -0.020843 0.062644
vertex -0.040367 -0.009688 0.062376
vertex -0.048563 -0.025169 0.057470
endloop
endfacet
facet normal -0.710103 -0.476090 -0.518741
outer loop
vertex -0.029785 -0.024468 0.024540
vertex -0.039607 -0.026601 0.039944
vertex -0.050238 -0.023784 0.051911
endloop
endfacet
facet normal -0.860624 0.443023 -0.251110
outer loop
vertex 0.015098 -0.038575 -0.033410
vertex 0.015517 -0.042895 -0.042469
vertex 0.011983 -0.048927 -0.040996
endloop
endfacet
facet normal -0.397359 0.467023 0.789934
outer loop
vertex -0.055202 -0.090285 -0.052203
vertex -0.057894 -0.094199 -0.051242
vertex -0.038981 -0.080909 -0.049586
endloop
endfacet
facet normal -0.942631 -0.014907 0.333505
outer loop
vertex -0.115377 -0.132339 -0.064096
vertex -0.119765 -0.146950 -0.077152
vertex -0.118470 -0.147556 -0.073517
endloop
endfacet
facet normal -0.889766 0.455145 -0.034065
outer loop
vertex -0.108995 -0.119350 -0.057241
vertex -0.112172 -0.126238 -0.066282
vertex -0.115377 -0.132339 -0.064096
endloop
endfacet
facet normal -0.360444 -0.074218 0.929824
outer loop
vertex 0.011983 -0.048927 -0.040996
vertex 0.002260 -0.057450 -0.045445
vertex 0.008209 -0.057228 -0.043122
endloop
endfacet
facet normal -0.501290 0.773885 -0.387054
outer loop
vertex 0.004795 -0.058512 -0.050852
vertex 0.002260 -0.057450 -0.045445
vertex 0.011983 -0.048927 -0.040996
endloop
endfacet
facet normal -0.339361 0.450850 0.825572
outer loop
vertex -0.016630 -0.068872 -0.046973
vertex 0.008209 -0.057228 -0.043122
vertex 0.002260 -0.057450 -0.045445
endloop
endfacet
facet normal -0.199761 -0.265167 -0.943283
outer loop
vertex -0.105370 -0.146762 -0.082314
vertex -0.112552 -0.150268 -0.079808
vertex -0.114291 -0.146203 -0.080582
endloop
endfacet
facet normal 0.346116 -0.936580 0.054974
outer loop
vertex -0.089200 -0.141414 -0.075987
vertex -0.112552 -0.150268 -0.079808
vertex -0.096298 -0.144324 -0.080885
endloop
endfacet
facet normal -0.461816 -0.352585 -0.813885
outer loop
vertex -0.112552 -0.150268 -0.079808
vertex -0.119765 -0.146950 -0.077152
vertex -0.114291 -0.146203 -0.080582
endloop
endfacet
facet normal 0.409603 -0.903888 0.123336
outer loop
vertex -0.035411 -0.116126 -0.072205
vertex -0.035753 -0.116857 -0.076420
vertex -0.003466 -0.101765 -0.073045
endloop
endfacet
facet normal 0.444735 -0.866022 0.228511
outer loop
vertex 0.019256 -0.088689 -0.067712
vertex -0.003466 -0.101765 -0.073045
vertex 0.017018 -0.091504 -0.074023
endloop
endfacet
facet normal 0.516231 -0.809724 -0.279019
outer loop
vertex 0.163390 -0.015935 -0.069451
vertex 0.142035 -0.029657 -0.069137
vertex 0.146746 -0.025644 -0.072068
endloop
endfacet
facet normal 0.687452 0.723506 0.062838
outer loop
vertex 0.155871 0.006798 -0.071617
vertex 0.168809 -0.005229 -0.074681
vertex 0.166479 -0.002771 -0.077487
endloop
endfacet
facet normal 0.484572 0.766899 -0.420781
outer loop
vertex -0.078833 0.154491 -0.077759
vertex -0.071281 0.151498 -0.074517
vertex -0.058270 0.143167 -0.074716
endloop
endfacet
facet normal 0.089702 0.177080 -0.980100
outer loop
vertex -0.058270 0.143167 -0.074716
vertex -0.034204 0.127141 -0.075409
vertex -0.059379 0.137860 -0.075777
endloop
endfacet
facet normal 0.087982 0.977828 0.190030
outer loop
vertex 0.006792 0.026345 -0.011730
vertex 0.014842 0.026453 -0.016013
vertex 0.016950 0.028343 -0.026713
endloop
endfacet
facet normal -0.803533 0.530706 0.269604
outer loop
vertex 0.021140 0.040658 -0.038466
vertex 0.016950 0.028343 -0.026713
vertex 0.018891 0.031217 -0.026586
endloop
endfacet
facet normal 0.734665 -0.424683 0.529067
outer loop
vertex -0.004361 -0.005091 0.026644
vertex -0.014658 -0.017884 0.030674
vertex -0.004842 -0.013087 0.020892
endloop
endfacet
facet normal -0.374637 -0.919850 -0.116290
outer loop
vertex -0.039607 -0.026601 0.039944
vertex -0.048563 -0.025169 0.057470
vertex -0.050238 -0.023784 0.051911
endloop
endfacet
facet normal 0.610728 -0.673065 0.417126
outer loop
vertex -0.041351 -0.020843 0.062644
vertex -0.026587 -0.019886 0.042573
vertex -0.026503 -0.010914 0.056927
endloop
endfacet
facet normal -0.625742 0.617787 -0.476221
outer loop
vertex -0.029592 -0.016310 0.034871
vertex -0.000703 -0.018173 -0.005506
vertex -0.029785 -0.024468 0.024540
endloop
endfacet
facet normal -0.752191 -0.359049 -0.552532
outer loop
vertex -0.030936 0.009327 0.049002
vertex -0.029746 0.026073 0.036500
vertex -0.015200 0.025504 0.017067
endloop
endfacet
facet normal 0.868410 0.174211 0.464236
outer loop
vertex -0.009314 0.012680 0.004562
vertex -0.012228 0.018228 0.007930
vertex -0.022120 0.018633 0.026283
endloop
endfacet
facet normal 0.055502 -0.998242 0.020814
outer loop
vertex -0.037371 -0.009462 0.065208
vertex -0.037656 -0.009103 0.083218
vertex -0.040367 -0.009688 0.062376
endloop
endfacet
facet normal -0.002320 0.999992 0.003301
outer loop
vertex -0.079978 0.015742 0.043815
vertex -0.080108 0.015430 0.138178
vertex -0.036339 0.015790 0.060026
endloop
endfacet
facet normal 0.643882 -0.721982 0.253293
outer loop
vertex 0.001427 0.017687 -0.008470
vertex -0.009314 0.012680 0.004562
vertex -0.002729 0.010984 -0.017011
endloop
endfacet
facet normal 0.766337 -0.420268 0.485904
outer loop
vertex -0.019398 -0.007715 -0.016239
vertex -0.009541 -0.010975 -0.034604
vertex -0.007978 -0.000593 -0.028089
endloop
endfacet
facet normal 0.789310 0.021413 0.613621
outer loop
vertex -0.036815 0.015737 0.045286
vertex -0.034707 -0.008221 0.043411
vertex -0.022120 0.018633 0.026283
endloop
endfacet
facet normal 0.557518 -0.762878 0.327401
outer loop
vertex 0.009691 0.018159 -0.021443
vertex 0.001427 0.017687 -0.008470
vertex -0.002729 0.010984 -0.017011
endloop
endfacet
facet normal 0.928765 -0.366198 -0.057404
outer loop
vertex -0.002729 0.010984 -0.017011
vertex -0.007978 -0.000593 -0.028089
vertex -0.001481 0.016623 -0.032788
endloop
endfacet
facet normal 0.399950 -0.820339 0.408758
outer loop
vertex -0.065121 -0.130373 -0.077390
vertex -0.053728 -0.120495 -0.068713
vertex -0.089200 -0.141414 -0.075987
endloop
endfacet
facet normal -0.006627 0.086827 -0.996201
outer loop
vertex 0.089947 -0.050040 -0.072020
vertex 0.090258 -0.054881 -0.072444
vertex 0.063828 -0.066392 -0.073271
endloop
endfacet
facet normal 0.450081 0.763903 0.462471
outer loop
vertex -0.091068 0.159594 -0.069930
vertex 0.000677 0.103664 -0.066833
vertex -0.058270 0.143167 -0.074716
endloop
endfacet
facet normal 0.311035 -0.357721 -0.880507
outer loop
vertex -0.001481 0.016623 -0.032788
vertex -0.007978 -0.000593 -0.028089
vertex -0.008252 0.017945 -0.035717
endloop
endfacet
facet normal 0.394383 -0.918915 0.007601
outer loop
vertex -0.019398 -0.007715 -0.016239
vertex -0.022795 -0.009054 -0.001818
vertex -0.026831 -0.010896 -0.015141
endloop
endfacet
facet normal 0.516113 -0.775955 0.362658
outer loop
vertex -0.028619 -0.010312 0.031545
vertex -0.017103 -0.011666 0.012260
vertex -0.015180 -0.008750 0.015762
endloop
endfacet
facet normal 0.875784 -0.464121 0.132643
outer loop
vertex -0.034707 -0.008221 0.043411
vertex -0.034499 -0.006382 0.048469
vertex -0.036983 -0.009695 0.053278
endloop
endfacet
facet normal -0.178887 -0.131834 -0.974997
outer loop
vertex 0.156469 0.002113 -0.076821
vertex 0.119339 0.025141 -0.073122
vertex 0.133013 0.021384 -0.075123
endloop
endfacet
facet normal 0.000562 -0.999884 -0.015215
outer loop
vertex -0.035725 -0.008831 0.143414
vertex -0.080015 -0.009064 0.157063
vertex -0.035859 -0.007953 0.085717
endloop
endfacet
facet normal 0.015107 0.999869 0.005821
outer loop
vertex -0.035535 0.015180 0.390033
vertex -0.036109 0.015461 0.343343
vertex -0.080206 0.015853 0.390402
endloop
endfacet
facet normal -0.999991 -0.004226 -0.000701
outer loop
vertex -0.080119 0.015623 0.267058
vertex -0.080101 -0.009033 0.390342
vertex -0.080206 0.015853 0.390402
endloop
endfacet
facet normal 0.012157 0.999921 0.003055
outer loop
vertex -0.036109 0.015461 0.343343
vertex -0.036274 0.015632 0.288089
vertex -0.080206 0.015853 0.390402
endloop
endfacet
facet normal 0.000694 0.999998 -0.001867
outer loop
vertex -0.080119 0.015623 0.267058
vertex -0.080206 0.015853 0.390402
vertex -0.036274 0.015632 0.288089
endloop
endfacet
facet normal -0.999959 -0.008873 -0.001630
outer loop
vertex -0.080101 -0.009033 0.390342
vertex -0.080119 0.015623 0.267058
vertex -0.079953 -0.009067 0.299530
endloop
endfacet
facet normal 0.999961 -0.008465 -0.002646
outer loop
vertex -0.035721 -0.008885 0.281292
vertex -0.035800 -0.008899 0.251818
vertex -0.035609 0.014980 0.247449
endloop
endfacet
facet normal -0.999981 -0.006156 0.000435
outer loop
vertex -0.080119 0.015623 0.267058
vertex -0.080015 -0.009064 0.157063
vertex -0.079953 -0.009067 0.299530
endloop
endfacet
facet normal 0.999999 -0.000125 -0.001091
outer loop
vertex -0.035725 -0.008831 0.143414
vertex -0.035697 0.015456 0.166276
vertex -0.035609 0.014980 0.247449
endloop
endfacet
facet normal 0.911958 -0.237720 0.334399
outer loop
vertex 0.018012 -0.002479 0.011708
vertex 0.022575 -0.010855 -0.006690
vertex 0.023543 -0.003251 -0.003923
endloop
endfacet
facet normal 0.815843 -0.568999 0.103152
outer loop
vertex -0.036983 -0.009695 0.053278
vertex -0.036882 -0.011382 0.043173
vertex -0.034707 -0.008221 0.043411
endloop
endfacet
facet normal -0.309511 -0.512952 -0.800677
outer loop
vertex 0.061705 0.061153 -0.072413
vertex -0.008325 0.076203 -0.054984
vertex -0.018220 0.110464 -0.073109
endloop
endfacet
facet normal 0.816071 -0.422249 0.394631
outer loop
vertex 0.018012 -0.002479 0.011708
vertex 0.013241 -0.013850 0.009408
vertex 0.022575 -0.010855 -0.006690
endloop
endfacet
facet normal 0.959120 -0.278511 -0.050208
outer loop
vertex -0.037371 -0.009462 0.065208
vertex -0.035121 -0.001872 0.066100
vertex -0.035859 -0.007953 0.085717
endloop
endfacet
facet normal 0.999771 0.018246 -0.011160
outer loop
vertex -0.015180 -0.008750 0.015762
vertex -0.015492 -0.000912 0.000652
vertex -0.015411 0.002738 0.013894
endloop
endfacet
facet normal 0.999314 -0.002155 0.036967
outer loop
vertex -0.035121 -0.001872 0.066100
vertex -0.035916 0.015094 0.088582
vertex -0.035859 -0.007953 0.085717
endloop
endfacet
facet normal 0.999566 0.023720 0.017448
outer loop
vertex -0.035916 0.015094 0.088582
vertex -0.035121 -0.001872 0.066100
vertex -0.035458 0.013453 0.064608
endloop
endfacet
facet normal 0.258887 -0.493345 -0.830414
outer loop
vertex 0.030954 -0.084856 -0.072551
vertex 0.030644 -0.082322 -0.074152
vertex 0.063828 -0.066392 -0.073271
endloop
endfacet
facet normal 0.513602 -0.857657 0.025250
outer loop
vertex -0.037656 -0.009103 0.083218
vertex -0.037371 -0.009462 0.065208
vertex -0.035859 -0.007953 0.085717
endloop
endfacet
facet normal -0.367968 0.754012 -0.544119
outer loop
vertex 0.004795 -0.058512 -0.050852
vertex -0.048022 -0.089241 -0.057716
vertex -0.025571 -0.073083 -0.050507
endloop
endfacet
facet normal 0.315183 -0.479303 -0.819102
outer loop
vertex 0.017018 -0.091504 -0.074023
vertex 0.030644 -0.082322 -0.074152
vertex 0.030954 -0.084856 -0.072551
endloop
endfacet
facet normal 0.340437 0.562456 -0.753490
outer loop
vertex 0.012986 0.099022 -0.071330
vertex 0.059109 0.068604 -0.073197
vertex 0.013182 0.095218 -0.074081
endloop
endfacet
facet normal -0.403046 0.822525 0.401257
outer loop
vertex -0.048022 -0.089241 -0.057716
vertex -0.102312 -0.115083 -0.059275
vertex -0.108995 -0.119350 -0.057241
endloop
endfacet
facet normal -0.545969 0.403339 0.734326
outer loop
vertex 0.021140 0.040658 -0.038466
vertex 0.027769 0.032151 -0.028865
vertex 0.024158 0.046324 -0.039335
endloop
endfacet
facet normal -0.135579 -0.526318 0.839409
outer loop
vertex -0.106165 -0.122538 -0.056462
vertex -0.115377 -0.132339 -0.064096
vertex -0.107892 -0.140802 -0.068193
endloop
endfacet
facet normal 0.836371 -0.464054 0.291783
outer loop
vertex -0.015492 -0.000912 0.000652
vertex -0.002729 0.010984 -0.017011
vertex -0.009314 0.012680 0.004562
endloop
endfacet
facet normal 0.388418 -0.870954 0.300950
outer loop
vertex -0.015654 -0.023563 0.017819
vertex -0.026587 -0.019886 0.042573
vertex -0.039607 -0.026601 0.039944
endloop
endfacet
facet normal -0.460172 -0.566471 -0.683632
outer loop
vertex 0.015936 0.049087 -0.044638
vertex 0.026812 0.044565 -0.048213
vertex 0.022149 0.034512 -0.036743
endloop
endfacet
facet normal -0.281923 0.182408 -0.941938
outer loop
vertex 0.145469 -0.022425 -0.072429
vertex 0.090211 -0.021288 -0.055670
vertex 0.111261 -0.010331 -0.059849
endloop
endfacet
facet normal -0.233190 0.550355 -0.801706
outer loop
vertex 0.033134 -0.075485 -0.071878
vertex -0.032821 -0.109643 -0.076143
vertex -0.048022 -0.089241 -0.057716
endloop
endfacet
facet normal -0.818380 0.263089 -0.510919
outer loop
vertex -0.013500 -0.007945 0.020258
vertex 0.002305 -0.007518 -0.004838
vertex -0.000703 -0.018173 -0.005506
endloop
endfacet
facet normal -0.390840 -0.550829 -0.737449
outer loop
vertex 0.026812 0.044565 -0.048213
vertex 0.054849 0.014129 -0.040338
vertex 0.030363 0.012332 -0.026018
endloop
endfacet
facet normal 0.530061 -0.028716 0.847473
outer loop
vertex 0.018012 -0.002479 0.011708
vertex 0.003697 0.001786 0.020806
vertex 0.010738 -0.007307 0.016094
endloop
endfacet
facet normal -0.850042 -0.274978 -0.449239
outer loop
vertex -0.041163 0.028389 0.056686
vertex -0.029746 0.026073 0.036500
vertex -0.030936 0.009327 0.049002
endloop
endfacet
facet normal -0.222172 -0.337574 -0.914704
outer loop
vertex 0.099628 0.041199 -0.074260
vertex 0.119339 0.025141 -0.073122
vertex 0.061705 0.061153 -0.072413
endloop
endfacet
facet normal -0.594251 -0.794042 -0.127919
outer loop
vertex -0.046585 0.100223 -0.050667
vertex -0.050517 0.104072 -0.056290
vertex -0.029562 0.087629 -0.051574
endloop
endfacet
facet normal -0.717422 0.447433 -0.533957
outer loop
vertex -0.029592 -0.016310 0.034871
vertex -0.013500 -0.007945 0.020258
vertex -0.000703 -0.018173 -0.005506
endloop
endfacet
facet normal 0.022196 -0.217540 0.975799
outer loop
vertex -0.106165 -0.122538 -0.056462
vertex -0.022437 -0.079234 -0.048713
vertex -0.057894 -0.094199 -0.051242
endloop
endfacet
facet normal 0.145423 -0.985066 0.092174
outer loop
vertex -0.026831 -0.010896 -0.015141
vertex -0.022795 -0.009054 -0.001818
vertex -0.043736 -0.011590 0.004120
endloop
endfacet
facet normal 0.950351 0.126381 0.284360
outer loop
vertex 0.018626 0.006426 0.008207
vertex 0.023543 -0.003251 -0.003923
vertex 0.022246 0.010991 -0.005918
endloop
endfacet
facet normal 0.524897 0.310679 0.792441
outer loop
vertex -0.031258 0.008719 0.064244
vertex -0.008770 0.004156 0.051137
vertex -0.033148 0.019935 0.061098
endloop
endfacet
facet normal 0.705074 0.618506 0.346873
outer loop
vertex 0.011830 0.023222 -0.006556
vertex 0.013327 0.010883 0.012403
vertex 0.022246 0.010991 -0.005918
endloop
endfacet
facet normal 0.053436 -0.090456 -0.994466
outer loop
vertex 0.145469 -0.022425 -0.072429
vertex 0.146746 -0.025644 -0.072068
vertex 0.090258 -0.054881 -0.072444
endloop
endfacet
facet normal 0.485077 0.703164 0.519866
outer loop
vertex 0.126215 0.020693 -0.064139
vertex 0.107878 0.038589 -0.071235
vertex 0.092737 0.046671 -0.068039
endloop
endfacet
facet normal 0.653837 -0.403779 0.639890
outer loop
vertex 0.018012 -0.002479 0.011708
vertex 0.010738 -0.007307 0.016094
vertex 0.013241 -0.013850 0.009408
endloop
endfacet
facet normal 0.911788 -0.356550 -0.203751
outer loop
vertex -0.015180 -0.008750 0.015762
vertex -0.017103 -0.011666 0.012260
vertex -0.015492 -0.000912 0.000652
endloop
endfacet
facet normal 0.999992 0.002792 -0.002822
outer loop
vertex -0.035697 0.015456 0.166276
vertex -0.035859 -0.007953 0.085717
vertex -0.035916 0.015094 0.088582
endloop
endfacet
facet normal 0.562369 0.154906 0.812247
outer loop
vertex 0.013327 0.010883 0.012403
vertex 0.003697 0.001786 0.020806
vertex 0.018012 -0.002479 0.011708
endloop
endfacet
facet normal 0.364651 -0.246328 0.897971
outer loop
vertex -0.031258 0.008719 0.064244
vertex -0.026503 -0.010914 0.056927
vertex -0.013373 -0.003638 0.053591
endloop
endfacet
facet normal 0.302015 0.383619 0.872711
outer loop
vertex 0.126215 0.020693 -0.064139
vertex 0.098664 0.004514 -0.047494
vertex 0.151572 0.001175 -0.064335
endloop
endfacet
facet normal 0.967215 0.148438 -0.206061
outer loop
vertex -0.034707 -0.008221 0.043411
vertex -0.035463 0.014019 0.055884
vertex -0.034323 0.005204 0.054889
endloop
endfacet
facet normal 0.760178 -0.555189 0.337482
outer loop
vertex 0.013241 -0.013850 0.009408
vertex 0.016229 -0.022976 -0.012337
vertex 0.022575 -0.010855 -0.006690
endloop
endfacet
facet normal -0.015415 -0.999869 -0.004915
outer loop
vertex -0.040367 -0.009688 0.062376
vertex -0.054586 -0.009382 0.044626
vertex -0.036983 -0.009695 0.053278
endloop
endfacet
facet normal -0.020514 -0.998117 0.057806
outer loop
vertex -0.028619 -0.010312 0.031545
vertex -0.043736 -0.011590 0.004120
vertex -0.017103 -0.011666 0.012260
endloop
endfacet
facet normal 0.000230 0.999994 -0.003562
outer loop
vertex -0.036339 0.015790 0.060026
vertex -0.036815 0.015737 0.045286
vertex -0.079978 0.015742 0.043815
endloop
endfacet
facet normal 0.855800 -0.040695 0.515704
outer loop
vertex -0.009314 0.012680 0.004562
vertex -0.022120 0.018633 0.026283
vertex -0.015411 0.002738 0.013894
endloop
endfacet
facet normal 0.986351 -0.050002 -0.156883
outer loop
vertex -0.007978 -0.000593 -0.028089
vertex -0.009541 -0.010975 -0.034604
vertex -0.008252 0.017945 -0.035717
endloop
endfacet
facet normal -0.334359 0.431157 -0.838038
outer loop
vertex 0.050426 -0.023685 -0.041030
vertex 0.036413 -0.009707 -0.028248
vertex 0.090211 -0.021288 -0.055670
endloop
endfacet
facet normal -0.512084 -0.622973 0.591333
outer loop
vertex -0.037371 -0.009462 0.065208
vertex -0.040367 -0.009688 0.062376
vertex -0.035682 -0.011711 0.064302
endloop
endfacet
facet normal -0.920090 -0.088200 -0.381648
outer loop
vertex 0.002305 -0.007518 -0.004838
vertex -0.007674 0.010049 0.015161
vertex -0.002224 0.023760 -0.001147
endloop
endfacet
facet normal 0.478604 -0.784214 0.394900
outer loop
vertex 0.009774 -0.028668 -0.015817
vertex 0.016229 -0.022976 -0.012337
vertex 0.013241 -0.013850 0.009408
endloop
endfacet
facet normal -0.061424 0.285682 -0.956354
outer loop
vertex 0.133013 0.021384 -0.075123
vertex 0.119339 0.025141 -0.073122
vertex 0.122898 0.029089 -0.072171
endloop
endfacet
facet normal 0.876064 -0.111401 0.469150
outer loop
vertex -0.034707 -0.008221 0.043411
vertex -0.028619 -0.010312 0.031545
vertex -0.022120 0.018633 0.026283
endloop
endfacet
facet normal 0.998953 0.009599 -0.044729
outer loop
vertex -0.034323 0.005204 0.054889
vertex -0.034499 -0.006382 0.048469
vertex -0.034707 -0.008221 0.043411
endloop
endfacet
facet normal 0.749871 0.120811 0.650460
outer loop
vertex -0.015411 0.002738 0.013894
vertex -0.028619 -0.010312 0.031545
vertex -0.015180 -0.008750 0.015762
endloop
endfacet
facet normal 0.403578 -0.871222 -0.279459
outer loop
vertex 0.009691 0.018159 -0.021443
vertex -0.002729 0.010984 -0.017011
vertex -0.001481 0.016623 -0.032788
endloop
endfacet
facet normal 0.411239 -0.833634 0.368695
outer loop
vertex -0.009541 -0.010975 -0.034604
vertex -0.019398 -0.007715 -0.016239
vertex -0.026831 -0.010896 -0.015141
endloop
endfacet
facet normal 0.604263 -0.782793 0.148667
outer loop
vertex -0.011196 -0.012482 0.045047
vertex -0.017123 -0.017543 0.042486
vertex -0.014658 -0.017884 0.030674
endloop
endfacet
facet normal -0.108969 0.487398 0.866354
outer loop
vertex -0.097846 0.158123 -0.069122
vertex -0.094585 0.135837 -0.056174
vertex -0.086536 0.140084 -0.057551
endloop
endfacet
facet normal 0.221528 -0.459431 0.860144
outer loop
vertex 0.133094 -0.029011 -0.062805
vertex 0.102291 -0.020366 -0.050254
vertex 0.100128 -0.047798 -0.064349
endloop
endfacet
facet normal -0.354641 0.005331 0.934987
outer loop
vertex -0.021807 0.082118 -0.048601
vertex -0.021896 0.087800 -0.048667
vertex -0.029562 0.087629 -0.051574
endloop
endfacet
facet normal -0.589420 -0.622343 -0.515047
outer loop
vertex 0.006532 0.058428 -0.050509
vertex -0.007823 0.070074 -0.048153
vertex -0.008325 0.076203 -0.054984
endloop
endfacet
facet normal -0.097576 -0.981806 0.162896
outer loop
vertex -0.036882 -0.011382 0.043173
vertex -0.036983 -0.009695 0.053278
vertex -0.054586 -0.009382 0.044626
endloop
endfacet
facet normal -0.120957 -0.115036 0.985970
outer loop
vertex -0.057666 0.108046 -0.053001
vertex -0.058916 0.115331 -0.052304
vertex -0.080268 0.127160 -0.053543
endloop
endfacet
facet normal 0.866615 0.498088 -0.029771
outer loop
vertex -0.035463 0.014019 0.055884
vertex -0.036815 0.015737 0.045286
vertex -0.036339 0.015790 0.060026
endloop
endfacet
facet normal 0.317967 0.521476 0.791808
outer loop
vertex 0.024158 0.046324 -0.039335
vertex 0.081330 0.038515 -0.057151
vertex 0.002721 0.064306 -0.042569
endloop
endfacet
facet normal 0.355031 -0.198511 0.913535
outer loop
vertex 0.010738 -0.007307 0.016094
vertex 0.003697 0.001786 0.020806
vertex -0.004842 -0.013087 0.020892
endloop
endfacet
facet normal -0.067384 -0.997049 0.036765
outer loop
vertex -0.040367 -0.009688 0.062376
vertex -0.037656 -0.009103 0.083218
vertex -0.054586 -0.009382 0.044626
endloop
endfacet
facet normal -0.428550 -0.473844 0.769297
outer loop
vertex -0.081217 0.124685 -0.055597
vertex -0.080268 0.127160 -0.053543
vertex -0.094585 0.135837 -0.056174
endloop
endfacet
facet normal 0.660469 0.617178 0.427635
outer loop
vertex -0.030204 0.027017 0.046331
vertex -0.037614 0.026583 0.058402
vertex -0.033148 0.019935 0.061098
endloop
endfacet
facet normal 0.739353 -0.542006 -0.399483
outer loop
vertex -0.017103 -0.011666 0.012260
vertex -0.022795 -0.009054 -0.001818
vertex -0.015492 -0.000912 0.000652
endloop
endfacet
facet normal 0.499975 -0.022694 0.865742
outer loop
vertex -0.008770 0.004156 0.051137
vertex -0.031258 0.008719 0.064244
vertex -0.013373 -0.003638 0.053591
endloop
endfacet
facet normal 0.745113 -0.660331 0.093645
outer loop
vertex -0.019398 -0.007715 -0.016239
vertex -0.002729 0.010984 -0.017011
vertex -0.015492 -0.000912 0.000652
endloop
endfacet
facet normal 0.060022 -0.976819 -0.205480
outer loop
vertex -0.017103 -0.011666 0.012260
vertex -0.043736 -0.011590 0.004120
vertex -0.022795 -0.009054 -0.001818
endloop
endfacet
facet normal 0.768659 0.015488 0.639472
outer loop
vertex 0.001427 0.017687 -0.008470
vertex -0.012228 0.018228 0.007930
vertex -0.009314 0.012680 0.004562
endloop
endfacet
facet normal 0.939267 0.343141 -0.005566
outer loop
vertex -0.036339 0.015790 0.060026
vertex -0.035916 0.015094 0.088582
vertex -0.035458 0.013453 0.064608
endloop
endfacet
facet normal -0.072827 -0.204477 -0.976158
outer loop
vertex -0.059379 0.137860 -0.075777
vertex -0.034204 0.127141 -0.075409
vertex -0.018220 0.110464 -0.073109
endloop
endfacet
facet normal -0.663083 0.111964 0.740125
outer loop
vertex 0.008209 -0.057228 -0.043122
vertex 0.024008 -0.037460 -0.031957
vertex 0.011983 -0.048927 -0.040996
endloop
endfacet
facet normal 0.412272 0.651953 0.636388
outer loop
vertex 0.092737 0.046671 -0.068039
vertex 0.054701 0.072328 -0.069683
vertex 0.051144 0.067905 -0.062847
endloop
endfacet
facet normal 0.411880 0.652225 0.636363
outer loop
vertex 0.054701 0.072328 -0.069683
vertex 0.000677 0.103664 -0.066833
vertex 0.051144 0.067905 -0.062847
endloop
endfacet
facet normal 0.922691 0.321138 0.213335
outer loop
vertex -0.004123 0.000327 0.042798
vertex -0.004330 0.009837 0.029374
vertex -0.009644 0.013392 0.047007
endloop
endfacet
facet normal 0.715131 -0.526544 0.459716
outer loop
vertex -0.034707 -0.008221 0.043411
vertex -0.036882 -0.011382 0.043173
vertex -0.028619 -0.010312 0.031545
endloop
endfacet
facet normal -0.124999 -0.146733 -0.981246
outer loop
vertex 0.061705 0.061153 -0.072413
vertex 0.059109 0.068604 -0.073197
vertex 0.099628 0.041199 -0.074260
endloop
endfacet
facet normal 0.715167 -0.624544 0.313816
outer loop
vertex -0.002729 0.010984 -0.017011
vertex -0.019398 -0.007715 -0.016239
vertex -0.007978 -0.000593 -0.028089
endloop
endfacet
facet normal 0.287241 0.945360 0.154231
outer loop
vertex -0.021814 0.027590 0.027192
vertex -0.030204 0.027017 0.046331
vertex -0.012900 0.026242 0.018855
endloop
endfacet
facet normal 0.891389 -0.438310 0.115372
outer loop
vertex -0.015411 0.002738 0.013894
vertex -0.015492 -0.000912 0.000652
vertex -0.009314 0.012680 0.004562
endloop
endfacet
facet normal 0.309107 0.476965 0.822774
outer loop
vertex 0.081330 0.038515 -0.057151
vertex 0.051144 0.067905 -0.062847
vertex 0.002721 0.064306 -0.042569
endloop
endfacet
facet normal 0.335833 0.639189 0.691848
outer loop
vertex -0.058270 0.143167 -0.074716
vertex 0.000677 0.103664 -0.066833
vertex -0.028299 0.124470 -0.071991
endloop
endfacet
facet normal 0.296532 0.505748 0.810116
outer loop
vertex -0.058916 0.115331 -0.052304
vertex -0.021896 0.087800 -0.048667
vertex 0.000677 0.103664 -0.066833
endloop
endfacet
facet normal 0.835726 0.529632 0.145094
outer loop
vertex -0.004330 0.009837 0.029374
vertex -0.012900 0.026242 0.018855
vertex -0.009644 0.013392 0.047007
endloop
endfacet
facet normal -0.544920 0.204819 -0.813087
outer loop
vertex 0.002305 -0.007518 -0.004838
vertex 0.036413 -0.009707 -0.028248
vertex -0.000703 -0.018173 -0.005506
endloop
endfacet
facet normal 0.784892 -0.618120 0.043267
outer loop
vertex -0.014658 -0.017884 0.030674
vertex -0.004361 -0.005091 0.026644
vertex -0.011196 -0.012482 0.045047
endloop
endfacet
facet normal -0.093171 -0.223169 -0.970317
outer loop
vertex 0.000241 0.105938 -0.073840
vertex -0.018220 0.110464 -0.073109
vertex -0.034204 0.127141 -0.075409
endloop
endfacet
facet normal 0.534016 0.194634 0.822766
outer loop
vertex -0.000641 0.010047 0.021667
vertex 0.003697 0.001786 0.020806
vertex 0.013327 0.010883 0.012403
endloop
endfacet
facet normal -0.171379 -0.223867 -0.959434
outer loop
vertex -0.089478 0.152576 -0.075410
vertex -0.094574 0.162604 -0.076840
vertex -0.078833 0.154491 -0.077759
endloop
endfacet
facet normal -0.386899 -0.319891 -0.864858
outer loop
vertex -0.098092 0.158647 -0.073802
vertex -0.094574 0.162604 -0.076840
vertex -0.089478 0.152576 -0.075410
endloop
endfacet
facet normal 0.214173 -0.789215 0.575560
outer loop
vertex -0.107892 -0.140802 -0.068193
vertex -0.118470 -0.147556 -0.073517
vertex -0.089200 -0.141414 -0.075987
endloop
endfacet
facet normal -0.148544 0.360383 -0.920901
outer loop
vertex 0.063828 -0.066392 -0.073271
vertex 0.030644 -0.082322 -0.074152
vertex 0.033134 -0.075485 -0.071878
endloop
endfacet
facet normal -0.231988 0.582588 -0.778956
outer loop
vertex -0.048022 -0.089241 -0.057716
vertex -0.114291 -0.146203 -0.080582
vertex -0.112172 -0.126238 -0.066282
endloop
endfacet
facet normal 0.211124 -0.542300 0.813227
outer loop
vertex -0.106165 -0.122538 -0.056462
vertex -0.107892 -0.140802 -0.068193
vertex -0.053728 -0.120495 -0.068713
endloop
endfacet
facet normal 0.723707 -0.681728 0.107212
outer loop
vertex -0.019398 -0.007715 -0.016239
vertex -0.015492 -0.000912 0.000652
vertex -0.022795 -0.009054 -0.001818
endloop
endfacet
facet normal -0.319021 -0.501879 -0.803955
outer loop
vertex 0.061705 0.061153 -0.072413
vertex 0.054849 0.014129 -0.040338
vertex 0.026812 0.044565 -0.048213
endloop
endfacet
facet normal 0.826752 -0.084506 0.556183
outer loop
vertex -0.015411 0.002738 0.013894
vertex -0.022120 0.018633 0.026283
vertex -0.028619 -0.010312 0.031545
endloop
endfacet
facet normal 0.290845 -0.688310 0.664559
outer loop
vertex -0.053728 -0.120495 -0.068713
vertex -0.035411 -0.116126 -0.072205
vertex 0.019256 -0.088689 -0.067712
endloop
endfacet
facet normal 0.206541 -0.319564 -0.924781
outer loop
vertex -0.009855 -0.102500 -0.076225
vertex 0.030644 -0.082322 -0.074152
vertex 0.017018 -0.091504 -0.074023
endloop
endfacet
facet normal 0.464720 -0.822674 0.327479
outer loop
vertex -0.014658 -0.017884 0.030674
vertex -0.026587 -0.019886 0.042573
vertex -0.015654 -0.023563 0.017819
endloop
endfacet
facet normal -0.034825 0.175285 -0.983902
outer loop
vertex -0.114291 -0.146203 -0.080582
vertex -0.047386 -0.118956 -0.078096
vertex -0.096298 -0.144324 -0.080885
endloop
endfacet
facet normal -0.307625 0.686041 -0.659329
outer loop
vertex -0.048022 -0.089241 -0.057716
vertex -0.112172 -0.126238 -0.066282
vertex -0.102312 -0.115083 -0.059275
endloop
endfacet
facet normal 0.299159 0.511965 0.805230
outer loop
vertex 0.051144 0.067905 -0.062847
vertex 0.000677 0.103664 -0.066833
vertex 0.002721 0.064306 -0.042569
endloop
endfacet
facet normal -0.254092 0.556082 -0.791335
outer loop
vertex 0.033134 -0.075485 -0.071878
vertex 0.004795 -0.058512 -0.050852
vertex 0.050426 -0.023685 -0.041030
endloop
endfacet
facet normal -0.287958 -0.511460 -0.809623
outer loop
vertex -0.018220 0.110464 -0.073109
vertex -0.008325 0.076203 -0.054984
vertex -0.059379 0.137860 -0.075777
endloop
endfacet
facet normal -0.245393 0.480891 -0.841740
outer loop
vertex 0.145469 -0.022425 -0.072429
vertex 0.089947 -0.050040 -0.072020
vertex 0.090211 -0.021288 -0.055670
endloop
endfacet
facet normal -0.329762 0.468941 -0.819360
outer loop
vertex 0.090211 -0.021288 -0.055670
vertex 0.089947 -0.050040 -0.072020
vertex 0.050426 -0.023685 -0.041030
endloop
endfacet
facet normal 0.309971 0.614731 0.725275
outer loop
vertex 0.081330 0.038515 -0.057151
vertex 0.024158 0.046324 -0.039335
vertex 0.027769 0.032151 -0.028865
endloop
endfacet
facet normal -0.044752 0.071459 0.996439
outer loop
vertex -0.046585 0.100223 -0.050667
vertex -0.021896 0.087800 -0.048667
vertex -0.058916 0.115331 -0.052304
endloop
endfacet
facet normal -0.014909 0.533216 0.845848
outer loop
vertex -0.091068 0.159594 -0.069930
vertex -0.097846 0.158123 -0.069122
vertex -0.086536 0.140084 -0.057551
endloop
endfacet
facet normal -0.309036 0.615844 -0.724729
outer loop
vertex 0.026246 -0.019530 -0.027189
vertex 0.050426 -0.023685 -0.041030
vertex 0.015517 -0.042895 -0.042469
endloop
endfacet
facet normal 0.216778 -0.605676 0.765614
outer loop
vertex 0.032073 -0.046001 -0.040998
vertex 0.024008 -0.037460 -0.031957
vertex 0.008209 -0.057228 -0.043122
endloop
endfacet
facet normal 0.373778 -0.780451 0.501185
outer loop
vertex 0.100128 -0.047798 -0.064349
vertex 0.019256 -0.088689 -0.067712
vertex 0.065622 -0.068252 -0.070465
endloop
endfacet
facet normal 0.210164 -0.550884 0.807687
outer loop
vertex -0.022437 -0.079234 -0.048713
vertex -0.106165 -0.122538 -0.056462
vertex -0.053728 -0.120495 -0.068713
endloop
endfacet
facet normal -0.127868 -0.341330 -0.931206
outer loop
vertex 0.006532 0.058428 -0.050509
vertex -0.008325 0.076203 -0.054984
vertex 0.026812 0.044565 -0.048213
endloop
endfacet
facet normal -0.302398 -0.519821 -0.798963
outer loop
vertex -0.059379 0.137860 -0.075777
vertex -0.008325 0.076203 -0.054984
vertex -0.093920 0.136862 -0.062054
endloop
endfacet
facet normal -0.722280 0.379298 -0.578312
outer loop
vertex -0.034323 0.005204 0.054889
vertex -0.013500 -0.007945 0.020258
vertex -0.029592 -0.016310 0.034871
endloop
endfacet
facet normal -0.288695 -0.571389 -0.768225
outer loop
vertex -0.089478 0.152576 -0.075410
vertex -0.059379 0.137860 -0.075777
vertex -0.093920 0.136862 -0.062054
endloop
endfacet
facet normal -0.309612 -0.514955 -0.799351
outer loop
vertex 0.061705 0.061153 -0.072413
vertex 0.026812 0.044565 -0.048213
vertex -0.008325 0.076203 -0.054984
endloop
endfacet
facet normal -0.515322 -0.753784 -0.407741
outer loop
vertex -0.081217 0.124685 -0.055597
vertex -0.093920 0.136862 -0.062054
vertex -0.050517 0.104072 -0.056290
endloop
endfacet
facet normal -0.528598 -0.520144 -0.670846
outer loop
vertex 0.030363 0.012332 -0.026018
vertex 0.022149 0.034512 -0.036743
vertex 0.026812 0.044565 -0.048213
endloop
endfacet
facet normal -0.123333 0.270076 -0.954907
outer loop
vertex 0.063828 -0.066392 -0.073271
vertex 0.033134 -0.075485 -0.071878
vertex 0.089947 -0.050040 -0.072020
endloop
endfacet
facet normal 0.253971 -0.566742 0.783774
outer loop
vertex 0.032073 -0.046001 -0.040998
vertex 0.019256 -0.088689 -0.067712
vertex 0.100128 -0.047798 -0.064349
endloop
endfacet
facet normal -0.578239 -0.229680 -0.782870
outer loop
vertex 0.030363 0.012332 -0.026018
vertex 0.020169 0.002521 -0.015610
vertex 0.010566 0.017327 -0.012862
endloop
endfacet
facet normal 0.290908 -0.798488 0.527058
outer loop
vertex -0.065121 -0.130373 -0.077390
vertex -0.035411 -0.116126 -0.072205
vertex -0.053728 -0.120495 -0.068713
endloop
endfacet
facet normal 0.261122 -0.536764 0.802309
outer loop
vertex 0.059545 -0.025220 -0.036036
vertex 0.032073 -0.046001 -0.040998
vertex 0.100128 -0.047798 -0.064349
endloop
endfacet
facet normal 0.035746 0.999356 -0.003227
outer loop
vertex -0.008252 0.017945 -0.035717
vertex -0.012228 0.018228 0.007930
vertex 0.001427 0.017687 -0.008470
endloop
endfacet
facet normal 0.001882 0.168399 0.985717
outer loop
vertex -0.079182 0.018072 0.043416
vertex -0.079978 0.015742 0.043815
vertex -0.036175 0.017959 0.043353
endloop
endfacet
facet normal 0.876911 -0.459454 0.141171
outer loop
vertex -0.004361 -0.005091 0.026644
vertex -0.004123 0.000327 0.042798
vertex -0.011196 -0.012482 0.045047
endloop
endfacet
facet normal -0.701862 -0.682364 0.204375
outer loop
vertex 0.002721 0.064306 -0.042569
vertex -0.021896 0.087800 -0.048667
vertex -0.009934 0.076096 -0.046667
endloop
endfacet
facet normal 0.989240 0.095690 -0.110672
outer loop
vertex -0.035463 0.014019 0.055884
vertex -0.034707 -0.008221 0.043411
vertex -0.036815 0.015737 0.045286
endloop
endfacet
facet normal -0.475030 -0.741373 -0.474038
outer loop
vertex -0.050517 0.104072 -0.056290
vertex -0.008325 0.076203 -0.054984
vertex -0.029562 0.087629 -0.051574
endloop
endfacet
facet normal -0.234358 0.577502 -0.782028
outer loop
vertex 0.033134 -0.075485 -0.071878
vertex -0.048022 -0.089241 -0.057716
vertex 0.004795 -0.058512 -0.050852
endloop
endfacet
facet normal -0.708953 -0.003674 -0.705246
outer loop
vertex -0.079978 0.015742 0.043815
vertex -0.079264 -0.011287 0.043238
vertex -0.080219 -0.008894 0.044186
endloop
endfacet
facet normal 0.155304 0.987854 -0.005039
outer loop
vertex -0.035916 0.015094 0.088582
vertex -0.039504 0.015776 0.111649
vertex -0.035697 0.015456 0.166276
endloop
endfacet
facet normal -0.087181 0.725114 -0.683088
outer loop
vertex -0.096298 -0.144324 -0.080885
vertex -0.105370 -0.146762 -0.082314
vertex -0.114291 -0.146203 -0.080582
endloop
endfacet
facet normal 0.301624 0.953243 0.018743
outer loop
vertex -0.039504 0.015776 0.111649
vertex -0.035916 0.015094 0.088582
vertex -0.036339 0.015790 0.060026
endloop
endfacet
facet normal -0.419436 -0.664000 -0.619013
outer loop
vertex -0.050517 0.104072 -0.056290
vertex -0.093920 0.136862 -0.062054
vertex -0.008325 0.076203 -0.054984
endloop
endfacet
facet normal 0.363007 0.522400 0.771572
outer loop
vertex 0.051144 0.067905 -0.062847
vertex 0.081330 0.038515 -0.057151
vertex 0.092737 0.046671 -0.068039
endloop
endfacet
facet normal 0.109171 -0.993926 -0.013874
outer loop
vertex -0.043736 -0.011590 0.004120
vertex -0.028619 -0.010312 0.031545
vertex -0.036882 -0.011382 0.043173
endloop
endfacet
facet normal -0.000085 -0.588051 0.808824
outer loop
vertex -0.079264 -0.011287 0.043238
vertex -0.036882 -0.011382 0.043173
vertex -0.054586 -0.009382 0.044626
endloop
endfacet
facet normal 0.330628 -0.375803 0.865712
outer loop
vertex 0.059545 -0.025220 -0.036036
vertex 0.102291 -0.020366 -0.050254
vertex 0.058397 -0.007952 -0.028101
endloop
endfacet
facet normal 0.262296 -0.682135 0.682563
outer loop
vertex -0.053728 -0.120495 -0.068713
vertex -0.107892 -0.140802 -0.068193
vertex -0.089200 -0.141414 -0.075987
endloop
endfacet
facet normal -0.194657 0.551956 -0.810835
outer loop
vertex -0.047386 -0.118956 -0.078096
vertex -0.114291 -0.146203 -0.080582
vertex -0.048022 -0.089241 -0.057716
endloop
endfacet
facet normal -0.019289 -0.999691 0.015685
outer loop
vertex -0.080219 -0.008894 0.044186
vertex -0.054586 -0.009382 0.044626
vertex -0.037656 -0.009103 0.083218
endloop
endfacet
facet normal -0.002235 -0.999981 0.005711
outer loop
vertex -0.043736 -0.011590 0.004120
vertex -0.036882 -0.011382 0.043173
vertex -0.079264 -0.011287 0.043238
endloop
endfacet
facet normal -0.025509 0.660394 0.750486
outer loop
vertex -0.079978 0.015742 0.043815
vertex -0.036815 0.015737 0.045286
vertex -0.036175 0.017959 0.043353
endloop
endfacet
facet normal -0.100291 0.311623 -0.944898
outer loop
vertex -0.009855 -0.102500 -0.076225
vertex -0.032821 -0.109643 -0.076143
vertex 0.033134 -0.075485 -0.071878
endloop
endfacet
facet normal 0.526122 0.802245 -0.282132
outer loop
vertex -0.058270 0.143167 -0.074716
vertex -0.028299 0.124470 -0.071991
vertex -0.034204 0.127141 -0.075409
endloop
endfacet
facet normal 0.999997 0.001019 -0.002306
outer loop
vertex -0.035697 0.015456 0.166276
vertex -0.035725 -0.008831 0.143414
vertex -0.035859 -0.007953 0.085717
endloop
endfacet
facet normal -0.129540 0.355095 -0.925811
outer loop
vertex -0.009855 -0.102500 -0.076225
vertex 0.033134 -0.075485 -0.071878
vertex 0.030644 -0.082322 -0.074152
endloop
endfacet
facet normal -0.024047 0.999673 -0.008676
outer loop
vertex -0.008252 0.017945 -0.035717
vertex -0.036175 0.017959 0.043353
vertex -0.012228 0.018228 0.007930
endloop
endfacet
facet normal -0.023055 -0.376119 0.926284
outer loop
vertex -0.054586 -0.009382 0.044626
vertex -0.080219 -0.008894 0.044186
vertex -0.079264 -0.011287 0.043238
endloop
endfacet
facet normal 0.423396 0.310071 0.851230
outer loop
vertex -0.033148 0.019935 0.061098
vertex -0.035458 0.013453 0.064608
vertex -0.031258 0.008719 0.064244
endloop
endfacet
facet normal 0.724738 0.321507 0.609416
outer loop
vertex -0.036815 0.015737 0.045286
vertex -0.022120 0.018633 0.026283
vertex -0.036175 0.017959 0.043353
endloop
endfacet
facet normal -0.102079 0.959032 -0.264268
outer loop
vertex -0.021814 0.027590 0.027192
vertex -0.012900 0.026242 0.018855
vertex -0.015200 0.025504 0.017067
endloop
endfacet
facet normal 0.002012 -0.002376 0.999995
outer loop
vertex -0.080101 -0.009033 0.390342
vertex -0.035538 -0.008768 0.390253
vertex -0.080206 0.015853 0.390402
endloop
endfacet
facet normal 0.328864 -0.925245 0.189131
outer loop
vertex -0.037656 -0.009103 0.083218
vertex -0.035859 -0.007953 0.085717
vertex -0.080015 -0.009064 0.157063
endloop
endfacet
facet normal -0.577470 0.734413 -0.356604
outer loop
vertex -0.112172 -0.126238 -0.066282
vertex -0.108995 -0.119350 -0.057241
vertex -0.102312 -0.115083 -0.059275
endloop
endfacet
facet normal -0.900114 0.108214 -0.422001
outer loop
vertex 0.015098 -0.038575 -0.033410
vertex 0.010678 -0.030447 -0.021897
vertex 0.012672 -0.028669 -0.025695
endloop
endfacet
facet normal 0.751834 0.546287 0.369210
outer loop
vertex 0.022246 0.010991 -0.005918
vertex 0.013327 0.010883 0.012403
vertex 0.018626 0.006426 0.008207
endloop
endfacet
facet normal 0.710787 0.214363 0.669948
outer loop
vertex 0.013327 0.010883 0.012403
vertex 0.018012 -0.002479 0.011708
vertex 0.018626 0.006426 0.008207
endloop
endfacet
facet normal -0.531928 0.153948 -0.832678
outer loop
vertex 0.020169 0.002521 -0.015610
vertex 0.037475 -0.001210 -0.027355
vertex 0.036413 -0.009707 -0.028248
endloop
endfacet
facet normal -0.563253 -0.500412 -0.657521
outer loop
vertex 0.030363 0.012332 -0.026018
vertex 0.010566 0.017327 -0.012862
vertex 0.016950 0.028343 -0.026713
endloop
endfacet
facet normal -0.456182 -0.132493 -0.879968
outer loop
vertex 0.020169 0.002521 -0.015610
vertex 0.002305 -0.007518 -0.004838
vertex 0.010566 0.017327 -0.012862
endloop
endfacet
facet normal 0.479199 0.435771 0.761887
outer loop
vertex 0.013327 0.010883 0.012403
vertex -0.004809 0.020129 0.018522
vertex -0.000641 0.010047 0.021667
endloop
endfacet
facet normal 0.532536 0.728003 0.431760
outer loop
vertex 0.011830 0.023222 -0.006556
vertex -0.012900 0.026242 0.018855
vertex 0.013327 0.010883 0.012403
endloop
endfacet
facet normal 0.483133 0.164034 0.860044
outer loop
vertex -0.000641 0.010047 0.021667
vertex -0.004361 -0.005091 0.026644
vertex 0.003697 0.001786 0.020806
endloop
endfacet
facet normal 0.519373 0.657708 0.545593
outer loop
vertex -0.012900 0.026242 0.018855
vertex -0.004809 0.020129 0.018522
vertex 0.013327 0.010883 0.012403
endloop
endfacet
facet normal 0.701298 0.161130 0.694420
outer loop
vertex 0.023543 -0.003251 -0.003923
vertex 0.030702 0.005843 -0.013264
vertex 0.022246 0.010991 -0.005918
endloop
endfacet
facet normal 0.739747 -0.421633 0.524404
outer loop
vertex -0.004842 -0.013087 0.020892
vertex 0.003697 0.001786 0.020806
vertex -0.004361 -0.005091 0.026644
endloop
endfacet
facet normal 0.899932 -0.080280 0.428576
outer loop
vertex -0.004361 -0.005091 0.026644
vertex -0.000641 0.010047 0.021667
vertex -0.004330 0.009837 0.029374
endloop
endfacet
facet normal 0.240212 -0.967578 0.078042
outer loop
vertex -0.014658 -0.017884 0.030674
vertex -0.017123 -0.017543 0.042486
vertex -0.026587 -0.019886 0.042573
endloop
endfacet
facet normal 0.481419 0.749032 0.455177
outer loop
vertex -0.009644 0.013392 0.047007
vertex -0.030204 0.027017 0.046331
vertex -0.033148 0.019935 0.061098
endloop
endfacet
facet normal 0.799031 0.453521 0.394802
outer loop
vertex -0.004330 0.009837 0.029374
vertex -0.000641 0.010047 0.021667
vertex -0.004809 0.020129 0.018522
endloop
endfacet
facet normal 0.505337 0.637154 0.581953
outer loop
vertex -0.004809 0.020129 0.018522
vertex -0.012900 0.026242 0.018855
vertex -0.004330 0.009837 0.029374
endloop
endfacet
facet normal 0.627747 -0.133735 0.766843
outer loop
vertex -0.026503 -0.010914 0.056927
vertex -0.031258 0.008719 0.064244
vertex -0.035682 -0.011711 0.064302
endloop
endfacet
facet normal 0.210089 -0.829607 0.517315
outer loop
vertex -0.026503 -0.010914 0.056927
vertex -0.026587 -0.019886 0.042573
vertex -0.017123 -0.017543 0.042486
endloop
endfacet
facet normal 0.372518 -0.727632 0.576005
outer loop
vertex -0.011196 -0.012482 0.045047
vertex -0.026503 -0.010914 0.056927
vertex -0.017123 -0.017543 0.042486
endloop
endfacet
facet normal 0.773032 -0.331989 0.540559
outer loop
vertex -0.013373 -0.003638 0.053591
vertex -0.011196 -0.012482 0.045047
vertex -0.004123 0.000327 0.042798
endloop
endfacet
facet normal 0.777220 -0.281887 0.562555
outer loop
vertex -0.013373 -0.003638 0.053591
vertex -0.004123 0.000327 0.042798
vertex -0.008770 0.004156 0.051137
endloop
endfacet
facet normal 0.477691 -0.546780 0.687636
outer loop
vertex -0.011196 -0.012482 0.045047
vertex -0.013373 -0.003638 0.053591
vertex -0.026503 -0.010914 0.056927
endloop
endfacet
facet normal -0.910420 0.099893 -0.401442
outer loop
vertex -0.034499 -0.006382 0.048469
vertex -0.029592 -0.016310 0.034871
vertex -0.036983 -0.009695 0.053278
endloop
endfacet
facet normal 0.551075 0.383543 0.741088
outer loop
vertex -0.008770 0.004156 0.051137
vertex -0.009644 0.013392 0.047007
vertex -0.033148 0.019935 0.061098
endloop
endfacet
facet normal -0.774516 0.428778 -0.465053
outer loop
vertex -0.043030 -0.018289 0.055426
vertex -0.036983 -0.009695 0.053278
vertex -0.029592 -0.016310 0.034871
endloop
endfacet
facet normal 0.477912 0.839665 -0.257996
outer loop
vertex -0.035463 0.014019 0.055884
vertex -0.036339 0.015790 0.060026
vertex -0.030936 0.009327 0.049002
endloop
endfacet
facet normal -0.779612 -0.312739 -0.542586
outer loop
vertex -0.030936 0.009327 0.049002
vertex -0.015200 0.025504 0.017067
vertex -0.007674 0.010049 0.015161
endloop
endfacet
facet normal 0.889804 0.253797 0.379257
outer loop
vertex -0.009644 0.013392 0.047007
vertex -0.008770 0.004156 0.051137
vertex -0.004123 0.000327 0.042798
endloop
endfacet
facet normal 0.999888 0.000605 -0.014925
outer loop
vertex -0.004123 0.000327 0.042798
vertex -0.004361 -0.005091 0.026644
vertex -0.004330 0.009837 0.029374
endloop
endfacet
facet normal -0.678521 -0.011587 -0.734490
outer loop
vertex 0.010566 0.017327 -0.012862
vertex 0.002305 -0.007518 -0.004838
vertex -0.002224 0.023760 -0.001147
endloop
endfacet
facet normal -0.557697 0.109496 -0.822791
outer loop
vertex 0.036413 -0.009707 -0.028248
vertex 0.002305 -0.007518 -0.004838
vertex 0.020169 0.002521 -0.015610
endloop
endfacet
facet normal -0.716375 -0.216593 -0.663245
outer loop
vertex 0.010566 0.017327 -0.012862
vertex -0.002224 0.023760 -0.001147
vertex 0.006792 0.026345 -0.011730
endloop
endfacet
facet normal -0.048384 -0.036024 -0.998179
outer loop
vertex 0.000241 0.105938 -0.073840
vertex 0.013182 0.095218 -0.074081
vertex -0.018220 0.110464 -0.073109
endloop
endfacet
facet normal 0.259593 -0.370056 0.892003
outer loop
vertex 0.145918 -0.017059 -0.061578
vertex 0.102291 -0.020366 -0.050254
vertex 0.133094 -0.029011 -0.062805
endloop
endfacet
facet normal -0.008692 0.999962 -0.000268
outer loop
vertex -0.036339 0.015790 0.060026
vertex -0.080108 0.015430 0.138178
vertex -0.039504 0.015776 0.111649
endloop
endfacet
facet normal -0.547897 -0.808832 -0.213542
outer loop
vertex -0.050517 0.104072 -0.056290
vertex -0.057666 0.108046 -0.053001
vertex -0.081217 0.124685 -0.055597
endloop
endfacet
facet normal 0.337151 0.549269 0.764612
outer loop
vertex 0.081330 0.038515 -0.057151
vertex 0.126215 0.020693 -0.064139
vertex 0.092737 0.046671 -0.068039
endloop
endfacet
facet normal -0.414848 0.824858 -0.384071
outer loop
vertex -0.055202 -0.090285 -0.052203
vertex -0.038981 -0.080909 -0.049586
vertex -0.048022 -0.089241 -0.057716
endloop
endfacet
facet normal 0.008388 0.009196 0.999923
outer loop
vertex -0.035535 0.015180 0.390033
vertex -0.080206 0.015853 0.390402
vertex -0.035538 -0.008768 0.390253
endloop
endfacet
facet normal 0.000488 0.999999 -0.001438
outer loop
vertex -0.080119 0.015623 0.267058
vertex -0.036274 0.015632 0.288089
vertex -0.035697 0.015456 0.166276
endloop
endfacet
endsolid Exported from Blender-3.0.1
